<svg width="103" height="29" viewBox="0 0 103 29" fill="none" xmlns="http://www.w3.org/2000/svg">
<path d="M14.3786 18.232C14.1013 18.4667 13.7386 18.6587 13.2906 18.808C12.864 18.936 12.3626 19 11.7866 19C11.0186 19 10.3786 18.904 9.86663 18.712C9.37596 18.52 9.05596 18.1893 8.90663 17.72C8.30929 15.8427 7.81863 14.328 7.43463 13.176C7.05063 12.0027 6.75196 10.9787 6.53863 10.104H6.37863C6.31463 11.3627 6.26129 12.5147 6.21863 13.56C6.19729 14.584 6.17596 15.5867 6.15463 16.568C6.15463 17.5493 6.13329 18.5413 6.09063 19.544C6.06929 20.5467 6.02663 21.656 5.96263 22.872C5.68529 22.9787 5.32263 23.064 4.87463 23.128C4.42663 23.2133 3.97863 23.256 3.53063 23.256C2.59196 23.256 1.85596 23.1067 1.32263 22.808C0.810625 22.5093 0.554625 21.9653 0.554625 21.176L1.48263 4.856C1.65329 4.57867 2.02663 4.28 2.60263 3.96C3.17863 3.64 3.98929 3.48 5.03463 3.48C6.16529 3.48 7.05063 3.66133 7.69063 4.024C8.33063 4.36533 8.79996 4.93067 9.09863 5.72C9.29063 6.232 9.49329 6.81867 9.70663 7.48C9.94129 8.14133 10.1653 8.824 10.3786 9.528C10.6133 10.232 10.8373 10.936 11.0506 11.64C11.264 12.3227 11.456 12.9413 11.6266 13.496H11.7866C12.2986 11.704 12.8106 9.976 13.3226 8.312C13.8346 6.62667 14.304 5.21867 14.7306 4.088C15.0506 3.91733 15.456 3.77867 15.9466 3.672C16.4586 3.544 17.024 3.48 17.6426 3.48C18.688 3.48 19.5413 3.64 20.2026 3.96C20.864 4.25867 21.248 4.696 21.3546 5.272C21.44 5.69867 21.5253 6.36 21.6106 7.256C21.7173 8.13067 21.824 9.12267 21.9306 10.232C22.0373 11.3413 22.144 12.5147 22.2506 13.752C22.3573 14.9893 22.4533 16.184 22.5386 17.336C22.6453 18.4667 22.7306 19.512 22.7946 20.472C22.8586 21.4107 22.9013 22.136 22.9226 22.648C22.56 22.8613 22.176 23.0107 21.7706 23.096C21.3866 23.2027 20.8853 23.256 20.2666 23.256C19.456 23.256 18.7733 23.1173 18.2186 22.84C17.664 22.5627 17.3653 22.0187 17.3226 21.208C17.1946 18.8827 17.1093 16.792 17.0666 14.936C17.0453 13.08 17.0026 11.5227 16.9386 10.264H16.7786C16.5653 11.096 16.256 12.1413 15.8506 13.4C15.4453 14.6587 14.9546 16.2693 14.3786 18.232ZM27.0179 19.032C26.7832 18.4987 26.5272 17.9013 26.2499 17.24C25.9939 16.5787 25.7165 15.8213 25.4179 14.968C25.1405 14.1147 24.8419 13.144 24.5219 12.056C24.2232 10.9467 23.9032 9.67733 23.5619 8.248C23.8605 7.94933 24.2552 7.69333 24.7459 7.48C25.2579 7.24533 25.8125 7.128 26.4099 7.128C27.1565 7.128 27.7752 7.288 28.2659 7.608C28.7565 7.90667 29.1192 8.48267 29.3539 9.336L31.8819 18.136H32.0099C32.2659 17.4107 32.5112 16.6213 32.7459 15.768C33.0019 14.9147 33.2472 14.04 33.4819 13.144C33.7165 12.2267 33.9299 11.32 34.1219 10.424C34.3352 9.50667 34.5165 8.61067 34.6659 7.736C35.4339 7.33067 36.2765 7.128 37.1939 7.128C37.9405 7.128 38.5592 7.288 39.0499 7.608C39.5405 7.928 39.7859 8.48267 39.7859 9.272C39.7859 9.848 39.7112 10.52 39.5619 11.288C39.4125 12.0347 39.2099 12.8347 38.9539 13.688C38.7192 14.5413 38.4312 15.4267 38.0899 16.344C37.7699 17.24 37.4285 18.1253 37.0659 19C36.7032 19.8747 36.3299 20.7067 35.9459 21.496C35.5619 22.264 35.1885 22.9573 34.8259 23.576C34.2285 24.6213 33.6739 25.4747 33.1619 26.136C32.6499 26.7973 32.1592 27.3093 31.6899 27.672C31.2205 28.056 30.7512 28.312 30.2819 28.44C29.8125 28.5893 29.3219 28.664 28.8099 28.664C27.9139 28.664 27.1885 28.3973 26.6339 27.864C26.0792 27.3307 25.7485 26.6373 25.6419 25.784C26.3245 25.2507 27.0072 24.6533 27.6899 23.992C28.3725 23.352 28.9912 22.6907 29.5459 22.008C29.1832 21.9013 28.7885 21.656 28.3619 21.272C27.9565 20.8667 27.5085 20.12 27.0179 19.032ZM53.7531 6.968C55.0331 6.968 56.2171 7.13867 57.3051 7.48C58.4145 7.8 59.3638 8.30133 60.1531 8.984C60.9425 9.66667 61.5611 10.5307 62.0091 11.576C62.4571 12.6 62.6811 13.8267 62.6811 15.256C62.6811 16.6213 62.4891 17.816 62.1051 18.84C61.7211 19.864 61.1771 20.728 60.4731 21.432C59.7691 22.1147 58.9158 22.6267 57.9131 22.968C56.9318 23.3093 55.8331 23.48 54.6171 23.48C53.6998 23.48 52.8465 23.3413 52.0571 23.064V28.376C51.8438 28.44 51.5025 28.504 51.0331 28.568C50.5638 28.6533 50.0838 28.696 49.5931 28.696C49.1238 28.696 48.6971 28.664 48.3131 28.6C47.9505 28.536 47.6411 28.408 47.3851 28.216C47.1291 28.024 46.9371 27.7573 46.8091 27.416C46.6811 27.096 46.6171 26.6693 46.6171 26.136V10.776C46.6171 10.2 46.7345 9.73067 46.9691 9.368C47.2251 9.00533 47.5665 8.67467 47.9931 8.376C48.6545 7.94933 49.4758 7.608 50.4571 7.352C51.4385 7.096 52.5371 6.968 53.7531 6.968ZM53.8171 19.192C56.0145 19.192 57.1131 17.88 57.1131 15.256C57.1131 13.8907 56.8358 12.8773 56.2811 12.216C55.7478 11.5547 54.9691 11.224 53.9451 11.224C53.5398 11.224 53.1771 11.2773 52.8571 11.384C52.5371 11.4693 52.2598 11.576 52.0251 11.704V18.744C52.2811 18.872 52.5585 18.9787 52.8571 19.064C53.1558 19.1493 53.4758 19.192 53.8171 19.192ZM64.2079 3.128C64.2079 2.31733 64.4745 1.63467 65.0079 1.08C65.5625 0.525332 66.2879 0.247999 67.1839 0.247999C68.0799 0.247999 68.7945 0.525332 69.3279 1.08C69.8825 1.63467 70.1599 2.31733 70.1599 3.128C70.1599 3.93867 69.8825 4.62133 69.3279 5.176C68.7945 5.73067 68.0799 6.008 67.1839 6.008C66.2879 6.008 65.5625 5.73067 65.0079 5.176C64.4745 4.62133 64.2079 3.93867 64.2079 3.128ZM69.9039 22.968C69.6692 23.0107 69.3172 23.064 68.8479 23.128C68.3999 23.2133 67.9412 23.256 67.4719 23.256C67.0025 23.256 66.5759 23.224 66.1919 23.16C65.8292 23.096 65.5199 22.968 65.2639 22.776C65.0079 22.584 64.8052 22.328 64.6559 22.008C64.5279 21.6667 64.4639 21.2293 64.4639 20.696V7.672C64.6985 7.62933 65.0399 7.576 65.4879 7.512C65.9572 7.42667 66.4265 7.384 66.8959 7.384C67.3652 7.384 67.7812 7.416 68.1439 7.48C68.5279 7.544 68.8479 7.672 69.1039 7.864C69.3599 8.056 69.5519 8.32267 69.6799 8.664C69.8292 8.984 69.9039 9.41067 69.9039 9.944V22.968ZM81.1351 11.256C80.6018 11.256 80.0898 11.3413 79.5991 11.512C79.1298 11.6827 78.7138 11.9387 78.3511 12.28C78.0098 12.6 77.7325 13.0053 77.5191 13.496C77.3058 13.9867 77.1991 14.5627 77.1991 15.224C77.1991 16.5467 77.5725 17.5387 78.3191 18.2C79.0871 18.8613 80.0151 19.192 81.1031 19.192C81.7431 19.192 82.2978 19.1173 82.7671 18.968C83.2365 18.8187 83.6525 18.6587 84.0151 18.488C84.4418 18.7867 84.7618 19.1173 84.9751 19.48C85.1885 19.8213 85.2951 20.2373 85.2951 20.728C85.2951 21.6027 84.8791 22.2853 84.0471 22.776C83.2151 23.2453 82.0631 23.48 80.5911 23.48C79.2471 23.48 78.0311 23.288 76.9431 22.904C75.8551 22.4987 74.9165 21.944 74.1271 21.24C73.3591 20.5147 72.7618 19.6507 72.3351 18.648C71.9085 17.6453 71.6951 16.536 71.6951 15.32C71.6951 13.912 71.9191 12.6853 72.3671 11.64C72.8365 10.5733 73.4658 9.69867 74.2551 9.016C75.0445 8.33333 75.9511 7.82133 76.9751 7.48C78.0205 7.13867 79.1191 6.968 80.2711 6.968C81.8071 6.968 82.9911 7.24533 83.8231 7.8C84.6551 8.35467 85.0711 9.06933 85.0711 9.944C85.0711 10.3493 84.9751 10.7333 84.7831 11.096C84.5911 11.4373 84.3671 11.736 84.1111 11.992C83.7485 11.8213 83.3111 11.6613 82.7991 11.512C82.2871 11.3413 81.7325 11.256 81.1351 11.256ZM102.223 20.184C102.117 21.1867 101.818 21.9547 101.327 22.488C100.858 23.0213 100.165 23.288 99.2474 23.288C98.5647 23.288 97.9567 23.128 97.4234 22.808C96.89 22.4667 96.314 21.9013 95.6954 21.112L92.5274 17.144V22.968C92.2927 23.0107 91.9407 23.064 91.4714 23.128C91.0234 23.2133 90.5647 23.256 90.0954 23.256C89.626 23.256 89.1994 23.224 88.8154 23.16C88.4527 23.096 88.1434 22.968 87.8874 22.776C87.6314 22.584 87.4287 22.328 87.2794 22.008C87.1514 21.6667 87.0874 21.2293 87.0874 20.696V2.168C87.322 2.104 87.6634 2.04 88.1114 1.976C88.5807 1.89067 89.05 1.848 89.5194 1.848C89.9887 1.848 90.4047 1.88 90.7674 1.944C91.1514 2.008 91.4714 2.136 91.7274 2.328C91.9834 2.52 92.1754 2.78667 92.3034 3.128C92.4527 3.448 92.5274 3.87467 92.5274 4.408V12.856L98.0314 7.224C99.1407 7.224 100.026 7.46933 100.687 7.96C101.37 8.45067 101.711 9.06933 101.711 9.816C101.711 10.136 101.658 10.4347 101.551 10.712C101.445 10.968 101.274 11.2347 101.039 11.512C100.826 11.7893 100.538 12.088 100.175 12.408C99.834 12.7067 99.4287 13.0587 98.9594 13.464L97.1034 15.064L102.223 20.184Z" fill="#EB616B"/>
</svg>
