<svg width="390" height="374" viewBox="0 0 390 374" fill="none" xmlns="http://www.w3.org/2000/svg">
<g filter="url(#filter0_d_762_3045)">
<rect x="89" y="25.918" width="200" height="264" rx="10" fill="white"/>
<rect x="97" y="33.918" width="184" height="244" rx="10" fill="#FFE3E1"/>
<rect x="97" y="195.918" width="184" height="86" fill="white"/>
</g>
<g filter="url(#filter1_d_762_3045)">
<rect x="132.418" y="25" width="200" height="264" rx="10" transform="rotate(8 132.418 25)" fill="white"/>
<rect x="139.227" y="34.0352" width="184" height="244" rx="10" transform="rotate(8 139.227 34.0352)" fill="#FFE3E1"/>
<rect x="116.681" y="194.459" width="184" height="86" transform="rotate(8 116.681 194.459)" fill="white"/>
</g>
<path d="M259.088 191.554C259.099 190.796 259.933 188.674 258.427 186.348L258.601 185.731C260.722 185.64 264.531 185.326 265.532 182.278C266.527 179.247 263.81 176.932 261.608 175.108L270.388 144.08C271.194 143.728 271.862 143.122 272.293 142.355C272.723 141.588 272.891 140.701 272.772 139.83C272.652 138.959 272.252 138.15 271.631 137.527C271.01 136.904 270.203 136.501 269.332 136.379L253.491 134.153L258.186 115.77L249.87 114.39L245.276 132.998L226.212 130.319C225.349 130.197 224.47 130.357 223.706 130.776C222.942 131.195 222.333 131.85 221.972 132.643C221.61 133.436 221.515 134.324 221.7 135.176C221.885 136.027 222.34 136.796 222.998 137.368L222.779 147.409C219.174 147.996 215.707 149.239 212.551 151.077C212.804 150.43 210.999 155.042 219.687 132.839L215.011 133.786L218.937 124.011L202.676 117.564L204.975 106.161L192.089 104.35L190.072 116.612L188.941 116.453L189.597 111.213L176.774 109.411L175.877 117.745L161.73 117.862L162.353 126.673L157.416 123.827L161.555 177.847L149.769 176.19L149.336 179.269C149.006 181.635 149.629 184.035 151.066 185.943C152.504 187.851 154.64 189.11 157.005 189.446L273.58 205.829C275.946 206.159 278.346 205.537 280.254 204.099C282.162 202.661 283.422 200.526 283.757 198.16L284.19 195.082L259.088 191.554Z" fill="white"/>
<path d="M152.415 179.701L280.679 197.728L280.575 198.468C280.385 199.822 279.665 201.044 278.573 201.867C277.481 202.69 276.108 203.045 274.754 202.855L156.697 186.263C155.343 186.073 154.121 185.352 153.298 184.261C152.475 183.169 152.12 181.795 152.31 180.442L152.415 179.701V179.701Z" fill="#EAE5DB"/>
<path d="M191.396 119.938L185.476 119.106L186.133 113.866L179.52 112.937L173.863 165.493L172.444 120.882L165.064 120.942L168.74 172.9L173.001 173.499L172.852 174.889L178.388 175.667L178.91 171.506L180.856 171.78L191.396 119.938Z" fill="#FFB020"/>
<path d="M214.888 125.749L205.083 121.862L187.669 176.297L201.276 108.78L194.663 107.851L182.769 180.204L186.768 180.766L187.531 176.977L193.179 179.785L214.888 125.749Z" fill="#FFB020"/>
<path d="M160.965 129.462L164.949 181.463L195.631 185.775L214.716 137.016C214.716 137.016 184.684 143.147 160.965 129.462V129.462Z" fill="#FF605B"/>
<path d="M182.394 171.996C188.552 172.861 194.245 168.571 195.111 162.413C195.976 156.255 191.686 150.561 185.528 149.696C179.37 148.83 173.676 153.121 172.811 159.279C171.945 165.437 176.236 171.13 182.394 171.996Z" fill="white"/>
<path d="M245.563 144.797L252.198 117.928L254.335 118.282L247.468 145.172L245.563 144.797Z" fill="#B2ACA3"/>
<path d="M226.195 133.455L268.482 139.398L253.072 193.849L224.954 189.897L226.195 133.455Z" fill="#00ABFE"/>
<path d="M269.015 139.473L225.662 133.38C225.217 133.317 224.805 133.627 224.743 134.072L224.71 134.306C224.647 134.751 224.957 135.163 225.402 135.225L268.756 141.318C269.201 141.381 269.612 141.071 269.675 140.626L269.708 140.392C269.77 139.947 269.46 139.535 269.015 139.473Z" fill="#EAE5DB"/>
<path d="M206.232 171.373L255.699 178.325L254.481 186.989L205.014 180.037L206.232 171.373Z" fill="#C72F55"/>
<path d="M254.401 186.978L205.094 180.048C203.907 179.881 202.81 180.709 202.643 181.896L202.274 184.517C202.107 185.704 202.935 186.802 204.122 186.969L253.428 193.899C254.615 194.065 255.713 193.238 255.88 192.051L256.248 189.43C256.415 188.242 255.588 187.145 254.401 186.978Z" fill="#ED6C4D"/>
<path d="M208.991 166.219C208.991 166.219 202.952 169.762 201.171 172.021C199.389 174.28 205.395 175.439 208.622 174.428C211.849 173.416 213.689 171.48 217.194 174.064C220.699 176.647 222.829 179.352 228.328 176.674C233.828 173.997 234.667 177.695 238.547 179.848C242.426 182.001 244.979 177.969 247.659 178.241C250.34 178.513 252.868 182.841 258.124 182.639C263.38 182.437 264.08 181.061 259.958 177.774C255.836 174.487 254.599 171.27 254.599 171.27L208.991 166.219Z" fill="#7AD001"/>
<path d="M209.408 168.578L253.413 174.763C254.244 174.881 255.091 174.781 255.871 174.472C256.651 174.163 257.337 173.656 257.862 173.001C258.386 172.346 258.731 171.565 258.862 170.737C258.993 169.908 258.905 169.059 258.608 168.274C256.057 161.638 249.787 152.648 234.418 150.45C218.935 148.236 210.439 155.213 206.189 160.927C205.692 161.601 205.378 162.392 205.279 163.223C205.18 164.054 205.298 164.897 205.623 165.668C205.948 166.44 206.467 167.114 207.131 167.624C207.794 168.134 208.579 168.463 209.408 168.578V168.578Z" fill="#ED6C4D"/>
<path d="M270.425 292.786C270.425 289.192 273.202 286.28 276.628 286.28H276.766C280.186 286.28 282.961 289.18 282.969 292.768C282.998 304.504 282.98 305.656 282.963 323.186C282.953 333.028 275.343 341 265.96 341H245.814C239.649 341 233.966 337.498 230.962 331.851L213 298.061L214.876 296.537C218.762 293.039 224.607 293.47 227.988 297.499L233.015 303.492L233.043 262.268C233.046 258.676 235.823 255.766 239.247 255.766H239.249C242.675 255.766 245.453 258.68 245.453 262.274V287.222C245.535 283.705 248.28 280.884 251.652 280.884H251.797C255.224 280.884 258.001 283.797 258.001 287.391V289.486C258.001 285.891 260.778 282.979 264.207 282.979H264.221C267.647 282.979 270.425 285.891 270.425 289.486V292.786Z" fill="#FDE0DF"/>
<path d="M239.227 247C231.131 247.009 224.571 253.433 224.562 261.36C224.562 262.248 225.297 262.968 226.204 262.968C227.111 262.968 227.846 262.248 227.846 261.36C227.846 255.205 232.942 250.216 239.227 250.216C245.512 250.216 250.608 255.205 250.608 261.36C250.608 262.248 251.343 262.968 252.25 262.968C253.157 262.968 253.892 262.248 253.892 261.36C253.882 253.433 247.322 247.009 239.227 247Z" fill="#FAA6A4"/>
<path d="M307.297 302.201C309.216 299.162 313.12 298.183 316.016 300.012L316.133 300.086C319.024 301.912 319.822 305.846 317.914 308.883C311.672 318.822 311.041 319.786 301.667 334.599C296.404 342.916 285.713 345.593 277.779 340.583L260.745 329.827C255.533 326.535 252.597 320.54 253.072 314.161L255.927 276L258.327 275.713C263.48 274.831 268.192 278.316 268.899 283.528L269.95 291.278L291.985 256.438C293.905 253.402 297.807 252.424 300.702 254.253L300.704 254.253C303.601 256.083 304.393 260.03 302.474 263.069L289.154 284.163C291.101 281.233 294.928 280.314 297.779 282.115L297.902 282.192C300.799 284.021 301.592 287.968 299.674 291.006L298.555 292.777C300.474 289.738 304.377 288.758 307.276 290.589L307.288 290.597C310.185 292.426 310.979 296.371 309.059 299.41L307.297 302.201Z" fill="#F6C0BD"/>
<path d="M305.365 246.83C298.515 242.515 289.538 244.444 285.298 251.142C284.824 251.892 285.061 252.894 285.828 253.378C286.595 253.862 287.601 253.646 288.075 252.895C291.361 247.691 298.333 246.194 303.648 249.549C308.962 252.905 310.607 259.844 307.321 265.048C306.846 265.799 307.084 266.801 307.85 267.285C308.617 267.769 309.623 267.553 310.098 266.802C314.322 260.094 312.205 251.16 305.365 246.83Z" fill="#EB616B"/>
<path d="M274.839 122.558L271.903 119.055C267.458 113.671 263.601 108.504 260.333 103.555C257.066 98.6078 255.768 93.7528 256.437 88.9898C256.951 85.3334 258.623 82.4286 261.454 80.2753C264.285 78.122 267.513 77.3 271.136 77.8093C273.234 78.1041 275.342 78.9399 277.459 80.3168C279.574 81.6934 281.399 84.0105 282.935 87.2681C285.309 84.56 287.703 82.8359 290.117 82.0959C292.53 81.3556 294.785 81.1329 296.883 81.4278C300.507 81.937 303.382 83.6168 305.51 86.467C307.638 89.3171 308.445 92.5704 307.931 96.2268C307.248 101.086 304.564 105.479 299.879 109.407C295.194 113.337 290.136 117.152 284.705 120.854L280.99 123.422C280.023 124.072 278.942 124.324 277.747 124.179C276.552 124.037 275.582 123.496 274.839 122.558ZM281.088 90.0258C279.812 87.0009 278.327 84.7679 276.633 83.3269C274.939 81.8878 272.971 81.0108 270.73 80.6959C267.87 80.2938 265.351 80.921 263.173 82.5774C260.995 84.2338 259.704 86.5053 259.298 89.3919C259 91.5088 259.29 93.769 260.168 96.1727C261.046 98.5784 262.331 101.102 264.026 103.744C265.722 106.387 267.697 109.117 269.952 111.936C272.204 114.755 274.578 117.664 277.074 120.664C277.361 121.048 277.718 121.27 278.147 121.33C278.577 121.391 278.982 121.276 279.363 120.986C282.589 118.79 285.673 116.648 288.615 114.559C291.56 112.471 294.211 110.391 296.57 108.318C298.926 106.245 300.858 104.174 302.365 102.103C303.871 100.034 304.773 97.9417 305.07 95.8248C305.476 92.9382 304.86 90.3986 303.224 88.2062C301.587 86.0137 299.338 84.7164 296.477 84.3144C294.237 83.9994 292.104 84.3002 290.079 85.2166C288.053 86.1349 286.01 87.872 283.949 90.4279C283.725 90.6417 283.483 90.8039 283.224 90.9148C282.966 91.0256 282.693 91.0609 282.407 91.0207C282.121 90.9805 281.869 90.8715 281.651 90.6936C281.433 90.5158 281.245 90.2932 281.088 90.0258Z" fill="#FAF6F6"/>
<defs>
</defs>
</svg>
