<svg width="390" height="374" viewBox="0 0 390 374" fill="none" xmlns="http://www.w3.org/2000/svg">
<path d="M193.563 337C172.634 337 152.395 332.689 133.408 324.188C126.592 321.131 119.946 317.523 113.65 313.462C101.783 305.807 91.0582 296.489 81.7447 285.742C79.2475 284.495 77.1926 282.557 75.7148 280.028C74.9314 278.69 74.2746 277.237 73.7537 275.69C59.7996 256.493 50.5008 234.006 46.834 210.563C45.6176 202.904 45 194.968 45 186.992C45 182.198 45.2279 177.393 45.6779 172.714C46.7473 161.338 49.0916 150.124 52.6471 139.404C54.2414 134.59 56.0859 129.841 58.1291 125.292C82.1086 71.6613 135.271 37 193.563 37C220.715 37 247.292 44.4728 270.422 58.6093C276.667 62.422 282.711 66.7677 288.388 71.5223C309.688 89.3709 325.589 112.725 334.373 139.06C338.971 152.844 341.549 167.226 342.035 181.805C342.094 183.511 342.125 185.244 342.125 186.992C342.125 193.436 341.712 199.913 340.895 206.319C343.431 207.802 345 210.54 345 213.51C345 216.547 343.359 219.343 340.72 220.801L337.976 222.316C334.04 238.786 327.4 254.336 318.2 268.62C318.084 270.135 317.943 271.836 317.773 273.654C317.071 281.167 310.326 286.085 303.56 289.156C302.947 293.213 299.481 296.206 295.431 296.206C295.413 296.206 295.395 296.206 295.378 296.206C277.2 313.485 255.008 325.89 230.958 332.182C230.51 332.313 230.046 332.432 229.584 332.548C217.916 335.502 205.794 337 193.563 337Z" fill="white"/>
<path d="M334.593 186.993C334.593 252.969 289.929 308.41 229.473 324.169C229.089 324.284 228.691 324.384 228.293 324.485C217.404 327.24 193.608 318.463 176.237 310.684C169.741 307.77 124.722 310.29 118.78 306.459C85.6732 285.103 62.0477 250.083 55.665 209.267C54.5137 202.019 53.9307 194.571 53.9307 186.993C53.9307 182.443 54.1439 177.951 54.5705 173.516C55.5941 162.623 57.826 152.074 61.1523 142.042C62.6594 137.493 64.3791 133.058 66.3268 128.724C88.317 79.5396 137.331 45.3096 194.262 45.3096C220.83 45.3096 245.678 52.7724 266.859 65.7179C272.829 69.3632 278.487 73.4392 283.831 77.9169C303.647 94.522 318.872 116.523 327.273 141.711C331.523 154.456 334.039 168.018 334.508 182.083C334.565 183.706 334.593 185.342 334.593 186.993Z" fill="#FFE3E1"/>
<path d="M208.236 100.623C207.867 100.694 207.483 100.781 207.128 100.91C205.621 101.384 204.327 102.23 203.261 103.407C203.19 103.493 203.204 103.594 203.275 103.666C203.303 103.694 203.347 103.709 203.389 103.709C203.446 103.709 203.488 103.695 203.517 103.652C204.555 102.518 205.792 101.7 207.227 101.241C207.583 101.14 207.938 101.039 208.308 100.982C208.393 100.968 208.464 100.867 208.45 100.767C208.421 100.68 208.35 100.609 208.236 100.623ZM219.025 103.751C217.817 102.861 216.537 102.13 215.201 101.584C214.775 101.412 214.348 101.254 213.936 101.11C213.837 101.081 213.737 101.139 213.709 101.239C213.681 101.326 213.737 101.426 213.823 101.455C214.235 101.584 214.647 101.742 215.059 101.914C216.367 102.459 217.632 103.177 218.812 104.038C218.841 104.066 218.883 104.081 218.912 104.081C218.969 104.081 219.026 104.052 219.054 104.009C219.111 103.924 219.097 103.809 219.025 103.751ZM226.076 112.721C225.265 110.927 224.27 109.277 223.119 107.784C223.048 107.698 222.935 107.683 222.863 107.755C222.792 107.812 222.777 107.927 222.835 107.999C223.972 109.463 224.953 111.099 225.749 112.864C225.777 112.935 225.848 112.979 225.905 112.979C225.933 112.979 225.962 112.964 225.99 112.95C226.076 112.922 226.118 112.808 226.076 112.721ZM200.986 108.631C201.001 108.531 200.944 108.445 200.858 108.416C200.773 108.402 200.659 108.444 200.631 108.545C200.261 109.994 200.062 111.559 200.076 113.195C200.076 113.554 200.077 113.927 200.105 114.286C200.105 114.387 200.176 114.458 200.275 114.458H200.289C200.389 114.458 200.46 114.372 200.46 114.272C200.431 113.913 200.431 113.554 200.431 113.196C200.418 111.588 200.617 110.052 200.986 108.631ZM228.052 119.367C227.995 118.979 227.924 118.592 227.839 118.204C227.825 118.104 227.739 118.046 227.64 118.06C227.54 118.089 227.469 118.175 227.497 118.276C227.568 118.663 227.64 119.036 227.696 119.409C227.938 120.873 228.051 122.394 228.066 123.944C228.066 124.045 228.136 124.116 228.236 124.116C228.336 124.116 228.421 124.045 228.421 123.944C228.407 122.38 228.279 120.845 228.052 119.367ZM203.829 125.036C202.905 123.371 202.138 121.62 201.527 119.84C201.499 119.74 201.385 119.697 201.299 119.726C201.214 119.755 201.157 119.869 201.186 119.955C201.797 121.764 202.593 123.529 203.531 125.223C203.559 125.28 203.616 125.308 203.674 125.308C203.716 125.308 203.744 125.308 203.773 125.279C203.858 125.236 203.886 125.121 203.829 125.036ZM210.966 133.833C209.544 132.599 208.208 131.221 207.014 129.757C206.957 129.671 206.843 129.671 206.772 129.728C206.687 129.785 206.687 129.9 206.744 129.972C207.952 131.464 209.289 132.856 210.724 134.105C210.767 134.134 210.81 134.148 210.838 134.148C210.895 134.148 210.952 134.12 210.98 134.091C211.036 134.005 211.036 133.89 210.966 133.833ZM227.825 129.485C227.711 129.471 227.626 129.542 227.611 129.628C227.327 131.437 226.901 133.302 226.346 135.197C226.318 135.297 226.375 135.398 226.474 135.426H226.517C226.602 135.426 226.659 135.383 226.687 135.297C227.256 133.403 227.682 131.508 227.967 129.685C227.981 129.585 227.91 129.499 227.825 129.485ZM220.66 139.603C219.423 139.115 218.314 138.627 217.263 138.096C216.694 137.795 216.111 137.479 215.557 137.149C215.472 137.106 215.358 137.135 215.316 137.221C215.259 137.307 215.287 137.407 215.372 137.465C215.941 137.795 216.524 138.125 217.107 138.412C218.159 138.957 219.282 139.46 220.533 139.948H220.59C220.66 139.948 220.731 139.904 220.76 139.833C220.788 139.746 220.745 139.646 220.66 139.603ZM231.506 142.99C230.795 142.788 230.085 142.588 229.36 142.373C228.251 142.057 227.142 141.741 226.034 141.411C225.934 141.397 225.834 141.44 225.806 141.54C225.778 141.641 225.835 141.727 225.934 141.756C227.043 142.086 228.152 142.402 229.26 142.717C229.985 142.932 230.696 143.133 231.407 143.334H231.449C231.535 143.334 231.606 143.291 231.62 143.204C231.649 143.119 231.591 143.019 231.506 142.99ZM224.669 140.492C224.583 140.449 224.47 140.492 224.442 140.579C224.299 140.895 224.171 141.21 224.044 141.526C223.404 142.975 222.722 144.396 221.997 145.746C221.954 145.832 221.983 145.947 222.068 145.989C222.096 146.004 222.125 146.018 222.153 146.018C222.21 146.018 222.281 145.975 222.309 145.917C223.034 144.554 223.731 143.119 224.356 141.669C224.498 141.353 224.64 141.038 224.768 140.722C224.797 140.636 224.754 140.521 224.669 140.492ZM242.153 147.066C240.632 146.218 238.927 145.458 236.936 144.726C236.836 144.697 236.737 144.74 236.709 144.841C236.681 144.927 236.723 145.027 236.808 145.07C238.784 145.788 240.476 146.548 241.983 147.381C242.011 147.395 242.04 147.395 242.068 147.395C242.125 147.395 242.195 147.366 242.224 147.309C242.267 147.223 242.239 147.109 242.153 147.066ZM136.18 148.874C134.133 148.228 132.257 147.826 130.594 147.654C130.494 147.64 130.409 147.726 130.394 147.812C130.38 147.913 130.451 147.999 130.551 148.013C132.2 148.171 134.048 148.587 136.066 149.219C136.08 149.219 136.109 149.233 136.123 149.233C136.195 149.233 136.266 149.176 136.294 149.104C136.322 149.003 136.266 148.903 136.18 148.874ZM124.908 148.243C123.614 148.731 122.519 149.506 121.638 150.539C121.24 150.998 120.913 151.501 120.629 152.032C120.586 152.118 120.629 152.233 120.714 152.276C120.743 152.29 120.771 152.305 120.8 152.305C120.857 152.305 120.927 152.261 120.956 152.204C121.212 151.687 121.539 151.214 121.908 150.769C122.747 149.793 123.799 149.047 125.035 148.573C125.121 148.544 125.163 148.443 125.135 148.343C125.092 148.257 124.993 148.2 124.908 148.243ZM146.841 152.893L141.524 150.84C141.425 150.812 141.326 150.855 141.297 150.955C141.254 151.042 141.311 151.142 141.397 151.185L146.713 153.223C146.727 153.237 146.756 153.237 146.77 153.237C146.855 153.237 146.912 153.194 146.94 153.122C146.984 153.022 146.927 152.922 146.841 152.893ZM250.412 154.873C249.502 153.337 248.408 151.945 247.157 150.74C247.044 150.625 246.93 150.51 246.816 150.396C246.745 150.338 246.631 150.338 246.56 150.41C246.489 150.481 246.503 150.596 246.574 150.668C246.687 150.769 246.801 150.884 246.915 150.998C248.137 152.175 249.217 153.553 250.113 155.06C250.141 155.118 250.199 155.147 250.27 155.147C250.298 155.147 250.326 155.147 250.355 155.118C250.441 155.074 250.469 154.96 250.412 154.873ZM219.281 150.568C219.196 150.51 219.082 150.539 219.04 150.625C217.931 152.218 216.737 153.725 215.5 155.089C215.443 155.161 215.443 155.275 215.514 155.333C215.542 155.361 215.585 155.39 215.628 155.39C215.685 155.39 215.727 155.362 215.77 155.319C217.007 153.955 218.215 152.434 219.324 150.827C219.381 150.74 219.367 150.625 219.281 150.568ZM157.474 156.969L152.158 154.931C152.058 154.887 151.959 154.945 151.931 155.031C151.888 155.132 151.931 155.232 152.03 155.261L157.346 157.299C157.36 157.313 157.389 157.313 157.403 157.313C157.474 157.313 157.546 157.27 157.574 157.198C157.602 157.112 157.559 157.012 157.474 156.969ZM168.135 160.944C166.515 160.399 164.767 159.753 162.79 159.007C162.691 158.963 162.591 159.021 162.563 159.107C162.52 159.207 162.563 159.308 162.663 159.337C164.652 160.097 166.401 160.729 168.022 161.288C168.036 161.303 168.05 161.303 168.078 161.303C168.149 161.303 168.221 161.245 168.235 161.174C168.278 161.088 168.221 160.987 168.135 160.944ZM211.619 159.007C211.563 158.92 211.449 158.906 211.378 158.978C209.871 160.184 208.279 161.232 206.644 162.092C206.559 162.135 206.531 162.25 206.573 162.337C206.602 162.394 206.658 162.422 206.73 162.422C206.759 162.422 206.787 162.422 206.815 162.408C208.464 161.533 210.071 160.471 211.591 159.251C211.676 159.193 211.676 159.078 211.619 159.007ZM122.121 162.939C121.111 161.36 120.415 159.495 120.159 157.686C120.145 157.586 120.046 157.514 119.96 157.528C119.86 157.542 119.79 157.629 119.804 157.729C120.074 159.624 120.77 161.489 121.822 163.14C121.865 163.197 121.922 163.226 121.979 163.226C122.007 163.226 122.035 163.212 122.064 163.197C122.15 163.14 122.178 163.025 122.121 162.939ZM179.024 164.159C177.276 163.757 175.471 163.283 173.537 162.709C173.437 162.68 173.352 162.723 173.31 162.823C173.296 162.924 173.338 163.025 173.437 163.054C175.385 163.627 177.19 164.101 178.953 164.517C178.967 164.517 178.981 164.517 178.981 164.517C179.067 164.517 179.137 164.46 179.166 164.373C179.181 164.274 179.123 164.188 179.024 164.159ZM201.427 164.245C199.665 164.79 197.802 165.178 195.898 165.407C195.798 165.422 195.727 165.522 195.741 165.609C195.755 165.709 195.826 165.767 195.912 165.767C195.926 165.767 195.926 165.767 195.94 165.767C197.873 165.537 199.75 165.135 201.526 164.589C201.612 164.561 201.668 164.46 201.64 164.374C201.612 164.274 201.513 164.217 201.427 164.245ZM190.24 165.68C188.449 165.637 186.544 165.479 184.597 165.206C184.497 165.192 184.412 165.264 184.397 165.35C184.383 165.451 184.454 165.551 184.554 165.551C186.516 165.838 188.42 165.996 190.24 166.039C190.339 166.039 190.41 165.953 190.41 165.867C190.424 165.767 190.339 165.68 190.24 165.68ZM252.658 160.197C252.629 160.097 252.53 160.039 252.431 160.068C252.331 160.097 252.288 160.183 252.303 160.284C252.786 162.063 253.028 163.901 253.028 165.723V165.91C253.028 166.01 253.113 166.097 253.198 166.097C253.212 166.097 253.212 166.097 253.212 166.097C253.312 166.097 253.383 166.01 253.383 165.925V165.723C253.383 163.872 253.141 162.006 252.658 160.197ZM130.394 170.632C128.746 169.44 127.267 168.364 125.889 167.144C125.817 167.087 125.703 167.087 125.633 167.173C125.576 167.245 125.59 167.36 125.661 167.417C127.054 168.637 128.532 169.728 130.181 170.919C130.224 170.933 130.252 170.948 130.295 170.948C130.352 170.948 130.394 170.919 130.437 170.876C130.494 170.79 130.48 170.689 130.394 170.632ZM252.388 171.393C252.303 171.364 252.203 171.421 252.175 171.507C251.677 173.144 250.994 174.822 250 176.775C249.957 176.861 249.985 176.976 250.07 177.019C250.099 177.033 250.127 177.033 250.156 177.033C250.227 177.033 250.284 177.005 250.312 176.933C251.322 174.966 252.018 173.273 252.516 171.622C252.53 171.521 252.487 171.421 252.388 171.393ZM139.165 177.951C137.914 176.645 136.507 175.34 134.958 174.062C134.887 174.004 134.773 174.019 134.702 174.091C134.645 174.162 134.66 174.277 134.73 174.349C136.266 175.598 137.673 176.904 138.909 178.21C138.938 178.238 138.995 178.267 139.037 178.267C139.08 178.267 139.123 178.238 139.165 178.21C139.236 178.138 139.236 178.023 139.165 177.951ZM118.027 183.348C116.023 183.62 114.189 184.367 112.725 185.486C112.639 185.544 112.625 185.658 112.696 185.745C112.725 185.788 112.781 185.802 112.839 185.802C112.867 185.802 112.909 185.802 112.938 185.773C114.346 184.682 116.122 183.979 118.084 183.707C118.169 183.693 118.24 183.606 118.226 183.506C118.212 183.405 118.127 183.333 118.027 183.348ZM128.859 186.333C127.395 185.17 125.633 184.281 123.742 183.764C123.642 183.735 123.543 183.792 123.514 183.878C123.5 183.979 123.543 184.08 123.643 184.108C125.491 184.61 127.225 185.486 128.632 186.619C128.675 186.633 128.703 186.648 128.746 186.648C128.802 186.648 128.845 186.634 128.888 186.591C128.944 186.505 128.93 186.39 128.859 186.333ZM333.912 184.252C333.869 184.165 333.755 184.137 333.67 184.194C332.05 185.141 330.344 185.989 328.581 186.677C328.496 186.72 328.454 186.821 328.482 186.921C328.51 186.978 328.581 187.021 328.652 187.021H328.709C330.486 186.318 332.22 185.457 333.855 184.495C333.94 184.453 333.968 184.337 333.912 184.252ZM247.469 181.711C247.384 181.668 247.285 181.697 247.228 181.783C246.347 183.319 245.337 185.084 244.47 186.806C244.427 186.907 244.47 187.007 244.556 187.05C244.584 187.065 244.612 187.079 244.627 187.079C244.697 187.079 244.754 187.036 244.797 186.978C245.65 185.241 246.645 183.505 247.54 181.955C247.583 181.869 247.555 181.769 247.469 181.711ZM300.79 186.878C298.544 186.419 296.753 186.161 295.147 186.075H295.133C295.047 186.075 294.962 186.147 294.962 186.233C294.948 186.333 295.019 186.42 295.118 186.434C296.71 186.52 298.488 186.778 300.719 187.223C300.734 187.237 300.748 187.237 300.762 187.237C300.848 187.237 300.919 187.18 300.933 187.094C300.947 186.993 300.89 186.893 300.79 186.878ZM145.505 187.481C144.823 185.773 143.899 184.065 142.79 182.414C142.733 182.328 142.619 182.314 142.534 182.371C142.448 182.428 142.434 182.529 142.491 182.615C143.586 184.236 144.496 185.93 145.178 187.624C145.206 187.681 145.277 187.724 145.348 187.724C145.362 187.724 145.391 187.724 145.405 187.71C145.505 187.682 145.548 187.581 145.505 187.481ZM311.935 189.059C311.409 189.002 310.883 188.945 310.371 188.858C309.22 188.686 307.983 188.456 306.348 188.098C306.263 188.083 306.163 188.141 306.135 188.241C306.121 188.328 306.177 188.428 306.277 188.442C307.911 188.801 309.162 189.045 310.314 189.217C310.84 189.289 311.365 189.361 311.906 189.419C311.906 189.419 311.906 189.419 311.92 189.419C312.005 189.419 312.09 189.346 312.09 189.261C312.105 189.16 312.035 189.074 311.935 189.059ZM323.179 188.356C321.331 188.773 319.455 189.045 317.593 189.16C317.493 189.174 317.408 189.261 317.422 189.361C317.422 189.448 317.508 189.519 317.593 189.519C317.607 189.519 317.607 189.519 317.607 189.519C319.498 189.404 321.388 189.132 323.265 188.701C323.35 188.687 323.421 188.586 323.392 188.486C323.378 188.399 323.279 188.342 323.179 188.356ZM289.447 186.548C288.039 186.922 286.731 187.524 285.552 188.328C285.154 188.6 284.756 188.902 284.386 189.232C284.315 189.289 284.301 189.404 284.372 189.475C284.401 189.519 284.458 189.547 284.5 189.547C284.543 189.547 284.586 189.533 284.614 189.504C284.984 189.188 285.367 188.887 285.751 188.614C286.917 187.825 288.153 187.265 289.532 186.892C289.632 186.878 289.689 186.777 289.66 186.677C289.631 186.577 289.532 186.519 289.447 186.548ZM109.754 190.294C109.783 190.194 109.726 190.093 109.641 190.065C109.556 190.036 109.441 190.079 109.413 190.179C109.001 191.385 108.802 192.676 108.802 194.026C108.802 194.643 108.845 195.289 108.93 195.935C108.944 196.021 109.03 196.078 109.115 196.078C109.115 196.078 109.129 196.078 109.144 196.078C109.229 196.064 109.3 195.978 109.286 195.877C109.201 195.26 109.158 194.628 109.158 194.025C109.157 192.705 109.356 191.457 109.754 190.294ZM132.612 190.682C132.569 190.596 132.456 190.567 132.37 190.624C132.285 190.682 132.257 190.782 132.313 190.868C133.251 192.404 134.034 194.155 134.602 196.063C134.63 196.135 134.702 196.192 134.773 196.192C134.787 196.192 134.801 196.178 134.829 196.178C134.915 196.149 134.971 196.049 134.943 195.948C134.361 194.011 133.578 192.246 132.612 190.682ZM242.068 196.738C242.096 195.274 242.295 193.81 242.722 192.274C242.736 192.174 242.679 192.073 242.594 192.045C242.494 192.016 242.395 192.073 242.367 192.174C241.954 193.738 241.741 195.231 241.713 196.723V196.91C241.713 197.254 241.727 197.584 241.755 197.914C241.755 198 241.826 198.072 241.926 198.072H241.94C242.04 198.072 242.11 197.986 242.11 197.886C242.082 197.57 242.068 197.24 242.068 196.91V196.738ZM146.941 193.064C146.941 192.963 146.841 192.906 146.756 192.906C146.657 192.92 146.586 193.007 146.6 193.107C146.671 193.839 146.713 194.571 146.713 195.317C146.713 196.48 146.614 197.642 146.415 198.776C146.401 198.877 146.458 198.963 146.558 198.977C146.572 198.992 146.572 198.992 146.586 198.992C146.671 198.992 146.743 198.92 146.757 198.834C146.97 197.685 147.07 196.509 147.07 195.317C147.068 194.571 147.026 193.81 146.941 193.064ZM281.06 193.681C280.975 193.624 280.876 193.652 280.819 193.738C279.937 195.26 279.17 196.91 278.43 198.518L278.26 198.891C278.217 198.977 278.26 199.077 278.345 199.12C278.374 199.135 278.402 199.135 278.416 199.135C278.487 199.135 278.544 199.106 278.587 199.034L278.757 198.675C279.497 197.082 280.264 195.431 281.131 193.925C281.174 193.839 281.145 193.724 281.06 193.681ZM114.886 205.421C113.365 204.144 112.128 202.723 111.176 201.173C111.134 201.087 111.019 201.058 110.934 201.115C110.849 201.173 110.821 201.273 110.877 201.36C111.844 202.939 113.109 204.402 114.659 205.694C114.687 205.723 114.729 205.737 114.772 205.737C114.815 205.737 114.872 205.723 114.9 205.68C114.971 205.593 114.957 205.478 114.886 205.421ZM136.052 201.618C136.038 201.517 135.952 201.445 135.852 201.46C135.753 201.46 135.682 201.546 135.696 201.646C135.824 202.866 135.881 204.129 135.881 205.421V206.253C135.867 206.626 135.852 206.985 135.838 207.358C135.838 207.459 135.909 207.545 136.008 207.545C136.008 207.545 136.008 207.545 136.022 207.545C136.107 207.545 136.193 207.472 136.193 207.372C136.207 206.999 136.221 206.641 136.236 206.267V205.421C136.237 204.115 136.18 202.837 136.052 201.618ZM246.674 208.018C245.366 206.626 244.3 205.048 243.518 203.34C243.475 203.253 243.376 203.211 243.276 203.253C243.19 203.296 243.148 203.411 243.19 203.498C243.987 205.234 245.081 206.842 246.417 208.263C246.446 208.305 246.503 208.32 246.545 208.32C246.588 208.32 246.63 208.306 246.673 208.277C246.731 208.205 246.745 208.09 246.674 208.018ZM275.886 203.899C275.8 203.842 275.701 203.871 275.644 203.957C275.473 204.229 275.289 204.516 275.103 204.789C274.25 206.066 273.213 207.243 272.033 208.305C271.962 208.363 271.962 208.478 272.019 208.549C272.062 208.592 272.105 208.621 272.161 208.621C272.204 208.621 272.246 208.606 272.275 208.563C273.469 207.487 274.521 206.282 275.402 204.99C275.587 204.717 275.772 204.43 275.943 204.143C275.999 204.057 275.971 203.957 275.886 203.899ZM144.823 204.057C144.738 204 144.638 204.043 144.581 204.129C143.643 205.851 142.449 207.301 141.013 208.449C140.943 208.507 140.928 208.621 140.985 208.708C141.027 208.751 141.07 208.765 141.127 208.765C141.17 208.765 141.198 208.751 141.241 208.737C142.705 207.559 143.941 206.067 144.894 204.302C144.936 204.215 144.908 204.1 144.823 204.057ZM124.879 210.545C124.026 210.315 123.173 210.013 122.335 209.697C121.397 209.324 120.473 208.922 119.62 208.492C119.534 208.449 119.42 208.492 119.378 208.578C119.335 208.664 119.378 208.779 119.464 208.822C120.331 209.252 121.255 209.654 122.207 210.027C123.046 210.358 123.927 210.644 124.78 210.903H124.837C124.908 210.903 124.979 210.846 125.007 210.774C125.035 210.673 124.979 210.574 124.879 210.545ZM136.024 210.946C134.602 211.334 133.081 211.52 131.475 211.52H131.432C131.105 211.52 130.764 211.52 130.437 211.492C130.352 211.506 130.253 211.563 130.253 211.664C130.253 211.764 130.324 211.85 130.423 211.85C130.764 211.879 131.091 211.879 131.432 211.879H131.475C133.11 211.879 134.674 211.678 136.109 211.29C136.209 211.262 136.266 211.162 136.237 211.075C136.209 210.975 136.109 210.918 136.024 210.946ZM267.612 211.549C267.569 211.448 267.456 211.419 267.371 211.463C265.665 212.295 263.86 212.884 262.026 213.2C261.926 213.214 261.869 213.314 261.884 213.415C261.898 213.501 261.969 213.559 262.054 213.559C262.068 213.559 262.068 213.559 262.083 213.559C263.959 213.243 265.779 212.64 267.527 211.779C267.612 211.735 267.655 211.635 267.612 211.549ZM256.425 213.271C256.07 213.214 255.7 213.156 255.359 213.07C253.894 212.754 252.473 212.209 251.108 211.477C251.037 211.419 250.924 211.463 250.881 211.548C250.824 211.635 250.867 211.735 250.952 211.792C252.33 212.539 253.795 213.098 255.273 213.428C255.643 213.5 255.998 213.572 256.368 213.63C256.382 213.63 256.382 213.63 256.396 213.63C256.481 213.63 256.553 213.558 256.567 213.472C256.581 213.372 256.525 213.286 256.425 213.271ZM135.426 212.898C135.327 212.87 135.227 212.942 135.213 213.042C134.886 214.922 134.431 216.788 133.863 218.582C133.834 218.683 133.877 218.783 133.976 218.812H134.033C134.104 218.812 134.175 218.769 134.204 218.697C134.772 216.889 135.227 215.009 135.568 213.1C135.583 212.999 135.512 212.913 135.426 212.898ZM131.986 223.791C131.901 223.763 131.802 223.791 131.759 223.878C130.906 225.614 129.94 227.264 128.873 228.8C128.817 228.872 128.845 228.986 128.916 229.044C128.959 229.059 128.987 229.073 129.03 229.073C129.073 229.073 129.129 229.044 129.172 229.001C130.253 227.451 131.219 225.786 132.072 224.035C132.115 223.949 132.072 223.834 131.986 223.791ZM125.49 233.163C125.433 233.091 125.32 233.091 125.249 233.163C123.912 234.498 122.448 235.717 120.899 236.808C120.814 236.866 120.799 236.966 120.856 237.053C120.885 237.096 120.942 237.124 120.998 237.124C121.041 237.124 121.069 237.124 121.098 237.095C122.676 236.004 124.154 234.77 125.49 233.407C125.561 233.335 125.561 233.235 125.49 233.163ZM82.6458 238.646C80.7556 238.574 78.8507 238.646 76.9458 238.832C76.8462 238.832 76.7753 238.933 76.7894 239.018C76.7894 239.119 76.8749 239.191 76.9599 239.191H76.9739C78.3814 239.047 79.7882 238.975 81.1816 238.975C81.665 238.975 82.1484 238.989 82.6318 239.004C82.7314 239.004 82.8163 238.918 82.8163 238.832C82.8163 238.732 82.7454 238.646 82.6458 238.646ZM93.89 240.454C92.1697 240.038 90.3931 239.593 88.6159 239.278L88.3177 239.22C88.2181 239.206 88.1331 239.278 88.1185 239.378C88.1044 239.464 88.1613 239.564 88.2609 239.579L88.545 239.637C90.3222 239.953 92.0847 240.383 93.8044 240.799C93.8185 240.799 93.8325 240.813 93.8472 240.813C93.9181 240.813 93.9896 240.756 94.0177 240.67C94.0323 240.569 93.9755 240.483 93.89 240.454ZM71.3167 239.751C69.4687 240.167 67.6206 240.712 65.83 241.358C65.7445 241.387 65.6876 241.487 65.7304 241.588C65.7445 241.659 65.8159 241.702 65.8868 241.702C65.9155 241.702 65.9296 241.702 65.9577 241.688C67.7349 241.057 69.5683 240.512 71.3876 240.095C71.4872 240.081 71.5441 239.98 71.53 239.88C71.5013 239.793 71.4023 239.737 71.3167 239.751ZM116.222 239.693C116.179 239.607 116.079 239.564 115.98 239.607C114.246 240.396 112.441 241.014 110.65 241.444C110.55 241.458 110.493 241.559 110.507 241.659C110.535 241.745 110.607 241.803 110.678 241.803C110.692 241.803 110.706 241.789 110.72 241.789C112.554 241.358 114.374 240.741 116.136 239.937C116.222 239.894 116.265 239.793 116.222 239.693ZM105.049 242.162C104.367 242.176 103.67 242.162 102.988 242.119C101.879 242.047 100.713 241.904 99.4341 241.674C99.3345 241.66 99.2349 241.731 99.2208 241.832C99.2068 241.918 99.2636 242.018 99.3632 242.033C100.671 242.263 101.836 242.406 102.96 242.478C103.486 242.506 104.011 242.521 104.538 242.521H105.064C105.163 242.521 105.234 242.435 105.234 242.335C105.234 242.234 105.134 242.162 105.049 242.162Z" fill="#63566D"/>
<path d="M179.131 69.6705C169.004 72.9378 159.717 78.5033 151.277 85.032C144.638 90.1669 138.367 96.0478 134.248 103.396C129.782 111.363 128.081 120.874 129.503 129.915C130.294 134.948 132.053 139.872 134.989 144.018C139.062 149.77 145.234 153.777 151.84 156.125C158.446 158.473 165.498 159.266 172.496 159.514C184.315 159.933 196.164 158.841 207.787 156.64C219.583 154.406 231.329 150.956 241.526 144.566C251.723 138.177 260.305 128.581 263.719 116.964C266.435 107.722 265.707 97.4913 261.709 88.7359C257.711 79.9805 250.479 72.7774 241.754 68.86C235.82 66.1961 229.324 65.0378 222.851 64.519C208.496 63.3683 192.886 65.233 179.131 69.6705Z" fill="white"/>
<path d="M260.072 256.627L292.918 285.881C292.918 285.881 250.092 322.89 237.933 312.081C225.775 301.271 223.96 295.041 223.96 295.041L260.072 256.627Z" fill="#F6C0BD"/>
<path d="M227.384 295.968C227.739 306.66 228.606 316.548 229.473 324.17C229.089 324.284 228.691 324.385 228.293 324.485C217.405 327.241 206.004 328.69 194.262 328.69C174.034 328.69 154.815 324.371 137.445 316.591C130.948 313.678 124.722 310.291 118.78 306.459L119.007 272.502C119.007 272.502 112.966 200.685 121.666 187.739C130.38 174.794 168.249 169.541 168.249 169.541C168.249 169.541 201.754 181.138 214.59 188.227C217.632 189.921 220.773 191.6 223.787 193.193C235.358 199.321 244.157 209.712 248.394 222.198L260.078 256.629L227.384 295.968Z" fill="#63566D"/>
<path d="M204 165.866L202.848 175.682L201.995 182.915C201.995 182.915 200.005 189.144 188.206 188.039C176.408 186.948 168.248 169.539 168.248 169.539L177.687 145.356L176.052 143.332C168.433 140.95 165.888 127.76 170.793 123.555C170.864 123.498 170.935 123.44 171.006 123.383C171.134 123.282 171.247 123.197 171.376 123.124C176.095 120.211 180.956 130.516 180.956 130.516L192.4 148.068L204 165.866Z" fill="#F6C0BD"/>
<path d="M204 165.865L202.849 175.681C200.944 176.959 198.485 177.174 196.253 176.686C190.951 175.552 187.055 170.931 184.539 166.094C182.478 162.104 181.755 156.763 181.072 152.313C179.849 144.305 186.998 145.657 192.4 148.068L204 165.865Z" fill="#B97B8E"/>
<path d="M231.279 118.481C231.279 103.302 219.092 90.998 204.058 90.998C189.842 90.998 178.186 102.006 176.96 116.038H176.959C176.959 116.038 176.959 116.051 176.959 116.054C176.889 116.855 176.837 117.661 176.837 118.481C176.837 119.892 176.976 121.267 177.179 122.622C177.529 130.887 178.373 144.529 180.225 149.017C182.947 155.612 186.939 167.338 200.731 170.819C214.523 174.3 224.223 150.04 225.229 146.818C227.553 139.373 229.031 132.105 229.886 127.118C230.778 124.399 231.279 121.501 231.279 118.481Z" fill="#F6C0BD"/>
<path d="M201.88 137.047C203.283 137.047 204.421 135.899 204.421 134.482C204.421 133.065 203.283 131.917 201.88 131.917C200.477 131.917 199.339 133.065 199.339 134.482C199.339 135.899 200.477 137.047 201.88 137.047Z" fill="#152139"/>
<path d="M221.237 140.345C222.64 140.345 223.778 139.197 223.778 137.78C223.778 136.363 222.64 135.215 221.237 135.215C219.834 135.215 218.696 136.363 218.696 137.78C218.696 139.197 219.834 140.345 221.237 140.345Z" fill="#152139"/>
<path d="M213.857 149.987C213.794 149.987 213.729 149.97 213.674 149.936L209.44 147.371C209.271 147.268 209.216 147.048 209.318 146.879C209.418 146.707 209.641 146.655 209.804 146.755L213.544 149.021L214.59 134.213C214.605 134.016 214.754 133.878 214.97 133.881C215.166 133.895 215.313 134.067 215.3 134.264L214.212 149.654C214.202 149.778 214.13 149.89 214.02 149.947C213.969 149.974 213.913 149.987 213.857 149.987Z" fill="#152139"/>
<path d="M209.051 151.882C208.192 151.882 207.336 151.647 206.595 151.194C205.53 150.541 204.749 149.466 204.454 148.243C204.409 148.051 204.525 147.857 204.716 147.809C204.902 147.762 205.099 147.88 205.146 148.074C205.395 149.112 206.058 150.025 206.964 150.58C207.87 151.135 208.981 151.304 210.006 151.048C210.202 150.998 210.389 151.117 210.437 151.31C210.484 151.502 210.368 151.697 210.177 151.744C209.807 151.836 209.428 151.882 209.051 151.882Z" fill="#152139"/>
<path d="M196.252 125.466C196.113 126.053 196.141 126.703 196.453 127.217C196.771 127.741 197.346 128.064 197.938 128.201C198.531 128.339 199.148 128.313 199.755 128.277C200.674 128.223 201.605 128.147 202.468 127.828C203.331 127.509 204.132 126.914 204.512 126.067C205.414 124.051 203.58 121.522 201.462 121.631C199.409 121.737 196.744 123.375 196.252 125.466Z" fill="#EB616B"/>
<path d="M229.146 130.148C229.199 130.677 229.099 131.243 228.767 131.656C228.429 132.076 227.889 132.291 227.354 132.341C226.82 132.392 226.284 132.297 225.757 132.194C224.96 132.039 224.155 131.862 223.436 131.481C222.718 131.1 222.086 130.485 221.852 129.701C221.296 127.831 223.193 125.836 225.032 126.181C226.815 126.515 228.956 128.262 229.146 130.148Z" fill="#EB616B"/>
<path d="M178.284 137.505C178.27 137.606 178.199 137.663 178.114 137.663C178.1 137.663 178.1 137.663 178.086 137.663C178 137.663 177.915 137.577 177.929 137.477C177.972 137.003 178 136.544 178.015 136.085C178.029 135.826 178.029 135.568 178.029 135.31C178.029 135.296 178.029 135.296 178.029 135.296C178.029 132.669 177.545 130.358 176.607 128.435C175.384 125.938 173.324 124.086 171.006 123.384C171.134 123.283 171.248 123.197 171.376 123.125C173.665 123.929 175.697 125.78 176.92 128.277C178.157 130.774 178.611 133.874 178.284 137.505Z" fill="#152139"/>
<path d="M178.097 136.109C178.023 136.109 177.955 136.063 177.929 135.989C177.243 134.023 175.443 132.717 173.599 131.598C173.244 131.382 172.92 131.198 172.572 131.134C172.476 131.116 172.411 131.023 172.429 130.925C172.446 130.829 172.53 130.761 172.636 130.781C173.045 130.856 173.397 131.057 173.783 131.291C175.683 132.444 177.54 133.797 178.265 135.87C178.297 135.964 178.249 136.066 178.157 136.099C178.136 136.106 178.116 136.109 178.097 136.109Z" fill="#152139"/>
<path d="M176.229 123.851C178.338 125.407 179.388 127.999 180.338 130.457C182.101 130.906 184.031 130.505 185.455 129.362C186.879 128.219 187.87 126.614 188.639 124.951C190.445 121.048 191.16 116.61 190.491 112.355C191.613 114.046 193.306 114.987 195.264 115.465C198.604 116.279 202.282 115.807 205.185 113.952C208.088 112.096 210.119 108.822 210.26 105.356C210.356 103.003 209.626 100.701 208.858 98.4776C207.56 94.7258 206.095 90.9639 203.698 87.812C197.204 87.1163 190.315 88.4875 184.791 92.0051C179.267 95.5232 175.068 101.231 173.703 107.68C173.234 109.898 173.093 112.172 172.978 114.437C172.839 117.164 172.736 119.893 172.669 122.624C173.885 122.431 175.234 123.117 176.229 123.851Z" fill="#EB616B"/>
<path d="M222.18 87.9658C224.115 88.1468 226.157 88.4136 227.666 89.5447C230.094 91.3644 230.25 94.8938 228.865 97.4814C233.335 96.3325 238.379 97.2927 241.992 99.9808C245.604 102.668 247.691 107.014 247.421 111.288C247.336 112.645 247.029 113.983 246.663 115.3C246.103 117.313 245.367 119.35 243.905 120.932C242.289 122.683 239.923 123.713 237.517 124.313C232.571 125.547 227.289 125.148 222.319 124.003C217.976 123.002 213.699 121.39 210.36 118.637C207.97 116.667 206.139 114.176 204.66 111.552C201.563 106.058 199.866 99.769 199.948 93.5663C199.971 91.8152 200.07 89.6755 201.659 88.4663C203.676 86.9317 207.234 87.4056 209.631 87.3991C213.821 87.3861 218.012 87.5754 222.18 87.9658Z" fill="#EB616B"/>
<path d="M130.14 180.898C130.14 180.898 115.622 186.029 103.282 209.724C90.9422 233.42 85.377 251.253 85.377 251.253L142.479 266.643L130.14 180.898Z" fill="#63566D"/>
<path d="M155.787 178.211C156.271 178.211 134.253 273.484 134.253 273.484C134.253 273.484 197.888 277.637 216.519 280.812C235.15 283.988 296.123 287.896 296.123 287.896L305.802 196.532C305.802 196.532 263.217 203.861 231.279 197.998C199.34 192.136 155.787 178.211 155.787 178.211Z" fill="#6A7ABB"/>
<path d="M160.623 184.073C161.076 184.073 140.442 270.858 140.442 270.858C140.442 270.858 200.076 274.641 217.535 277.534C234.995 280.427 292.134 283.987 292.134 283.987L301.204 200.762C301.204 200.762 261.297 207.438 231.366 202.098C201.437 196.757 160.623 184.073 160.623 184.073Z" fill="#FFEFEE"/>
<path d="M306.285 253.94C306.285 253.94 311.003 241.237 307.616 240.504C304.229 239.771 289.953 245.878 290.8 249.176C291.647 252.474 296.85 252.351 296.85 252.351V253.573C296.85 253.573 283.784 253.573 283.784 256.627C283.784 259.681 291.164 260.535 291.164 260.535C291.164 260.535 281.727 260.535 281.848 263.467C281.97 266.398 296.487 269.452 296.487 269.452C296.487 269.452 287.534 267.741 287.172 270.185C286.808 272.627 296.729 275.803 296.729 275.803L295.882 283.498C295.882 283.498 309.674 279.345 310.279 272.872C310.883 266.398 311.125 261.39 311.125 261.39C311.125 261.39 311.005 261.635 311.246 260.535C311.488 259.436 310.278 254.184 306.285 253.94Z" fill="#F6C0BD"/>
<path d="M118.345 241.175L86.769 246.855C86.769 246.855 76.9698 264.627 83.5024 275.803C90.035 286.98 114.534 265.91 118.163 263.161C121.792 260.413 125.24 257.298 125.24 257.298L132.076 256.016C132.076 256.016 146.594 258.458 147.319 257.115C148.045 255.771 145.747 254.55 145.747 254.55L133.527 249.786C133.527 249.786 153.005 256.26 154.457 253.817C155.909 251.375 135.343 242.58 135.343 242.58C135.343 242.58 155.546 250.275 157.724 247.832C159.901 245.39 136.673 233.908 136.673 233.908C136.673 233.908 143.932 234.396 145.747 235.007C147.561 235.617 151.916 242.091 154.336 241.114C156.756 240.137 150.102 229.389 146.715 227.434C143.327 225.479 127.841 224.38 127.479 225.113C127.116 225.846 125.785 226.335 126.027 229.266C126.027 229.266 121.914 232.442 122.397 234.762C122.881 237.083 118.345 241.175 118.345 241.175Z" fill="#F6C0BD"/>
<path d="M304.488 165.865L304.407 165.868C304.589 164.81 304.702 163.728 304.702 162.617C304.702 152.151 296.299 143.667 285.933 143.667C275.566 143.667 267.164 152.151 267.164 162.617C267.164 164.187 267.373 165.703 267.73 167.162L267.646 167.165C267.646 167.165 268.933 177.886 285.021 189.58C285.021 189.58 296.367 183.55 302.102 172.204C303.067 170.548 303.793 168.738 304.225 166.81C304.316 166.497 304.408 166.185 304.488 165.865Z" fill="#EB616B"/>
<path d="M295.523 164.476C296.363 159.252 292.849 154.33 287.674 153.482C282.499 152.634 277.624 156.182 276.784 161.406C275.944 166.63 279.458 171.553 284.633 172.401C289.808 173.248 294.683 169.701 295.523 164.476Z" fill="#FFEFEE"/>
<path d="M147.698 124.823L147.617 124.826C147.799 123.768 147.913 122.686 147.913 121.575C147.913 111.109 139.509 102.625 129.143 102.625C118.777 102.625 110.374 111.109 110.374 121.575C110.374 123.145 110.584 124.661 110.94 126.12L110.856 126.123C110.856 126.123 112.143 136.844 128.231 148.539C128.231 148.539 139.578 142.509 145.313 131.163C146.278 129.507 147.003 127.696 147.436 125.768C147.526 125.455 147.618 125.144 147.698 124.823Z" fill="#EB616B"/>
<path d="M138.73 123.435C139.57 118.211 136.055 113.289 130.881 112.441C125.706 111.593 120.83 115.141 119.99 120.365C119.151 125.589 122.665 130.512 127.839 131.36C133.014 132.207 137.89 128.66 138.73 123.435Z" fill="#FFEFEE"/>
<path d="M102.694 213.501L102.613 213.504C102.795 212.446 102.908 211.364 102.908 210.253C102.908 199.787 94.5054 191.303 84.139 191.303C73.7726 191.303 65.3696 199.787 65.3696 210.253C65.3696 211.823 65.5794 213.339 65.9356 214.798L65.8519 214.801C65.8519 214.801 67.1392 225.522 83.2267 237.216C83.2267 237.216 94.5728 231.186 100.308 219.841C101.274 218.185 101.999 216.374 102.431 214.446C102.522 214.132 102.614 213.821 102.694 213.501Z" fill="#EB616B"/>
<path d="M93.7273 212.115C94.5671 206.891 91.0529 201.968 85.8781 201.12C80.7034 200.272 75.8276 203.82 74.9878 209.045C74.1481 214.269 77.6622 219.191 82.837 220.039C88.0118 220.887 92.8875 217.339 93.7273 212.115Z" fill="#FFEFEE"/>
<path d="M282.211 101.656L286.35 109.297L293.918 113.475L286.35 117.654L282.211 125.294L278.073 117.654L270.505 113.475L278.073 109.297L282.211 101.656Z" fill="#FFA145"/>
<path d="M146.835 59.1504L150.974 66.7907L158.541 70.969L150.974 75.1479L146.835 82.7882L142.696 75.1479L135.129 70.969L142.696 66.7907L146.835 59.1504Z" fill="#FFA145"/>
<path d="M325.763 201.692L329.902 209.333L337.469 213.511L329.902 217.689L325.763 225.33L321.625 217.689L314.058 213.511L321.625 209.333L325.763 201.692Z" fill="#FFA145"/>
<path d="M84.0467 146.36L88.1852 154.001L95.7525 158.18L88.1852 162.358L84.0467 169.998L79.9076 162.358L72.3408 158.18L79.9076 154.001L84.0467 146.36Z" fill="#FFA145"/>
</svg>
