<svg width="390" height="374" viewBox="0 0 390 374" fill="none" xmlns="http://www.w3.org/2000/svg">
<path d="M154.879 66.6106C149.435 67.8901 143.954 69.1229 138.703 71.0517C130.858 73.9329 127.33 80.535 128.643 88.5894C129.429 93.4115 130.802 98.0474 132.129 102.53C132.757 104.649 133.349 106.651 133.869 108.625L141.866 139.05C133.351 145.493 132.055 157.971 131.916 169.353C131.883 172.071 131.915 175.079 132.014 178.549C132.016 178.632 132.02 178.714 132.024 178.795C132.105 181.454 132.214 184.18 132.323 186.939C132.536 192.275 132.746 197.772 132.764 203.102C122.296 185.966 110.648 180.485 109.185 179.849C108.074 179.365 106.889 179.125 105.705 179.125C103.603 179.125 101.51 179.882 99.8632 181.374C98.3437 182.75 97.4297 184.66 97.1944 186.67C96.0159 196.744 96.668 206.832 99.1314 216.656C99.2241 217.071 99.3336 217.498 99.4542 217.958C101.163 224.368 103.641 230.682 106.837 236.793C105.146 235.856 103.458 234.961 101.777 234.139C101.315 233.905 100.848 233.684 100.48 233.515C85.1181 226.187 72.8097 224.648 65.1901 224.648C60.8423 224.648 58.2097 225.162 57.7268 225.264C54.9769 225.85 52.6989 227.718 51.6351 230.262C50.5707 232.805 50.8566 235.696 52.3994 237.993C58.1112 246.495 65.3139 253.949 73.8093 260.149C74.1619 260.42 74.5353 260.69 74.9133 260.959C82.3384 266.226 90.7417 270.591 99.8574 273.921C100.486 274.153 101.113 274.383 101.7 274.583C116.313 279.681 129.17 281.06 135.417 281.43C135.904 281.655 136.385 281.877 136.86 282.094C137.316 282.302 137.795 282.461 138.283 282.593L129.439 311.765C127.523 318.135 129.641 324.949 134.837 329.127C151.246 342.314 169.735 349 189.79 349C196.21 349 202.762 348.294 209.312 346.892L211.159 346.478C225.989 342.991 235.786 337.043 236.195 336.792C238.365 335.46 239.808 333.247 240.126 330.764C240.129 330.742 242.475 316.211 242.475 316.211C252.299 312.398 272.181 302.05 280.062 278.841C287.846 281.889 295.338 283.435 302.412 283.435C320.752 283.435 329.847 273.318 330.824 272.165C332.278 270.448 332.967 268.236 332.74 266.02C332.514 263.804 331.388 261.769 329.617 260.366C323.282 255.355 316.249 252.342 308.662 251.306C318.172 241.009 318.435 230.315 318.441 229.597C318.465 226.085 316.221 222.787 312.489 221.574C311.655 221.302 310.772 221.196 309.893 221.196H309.862C309.316 221.198 308.77 221.209 308.226 221.23L306.716 215.482C307.456 214.48 308.039 213.353 308.541 212.166C309.898 216.067 313.271 218.574 317.302 218.574C320.854 218.574 324.003 216.602 325.73 213.296L327.495 209.907L331.622 208.886C335.738 207.87 338.619 204.732 338.966 200.891C339.311 197.053 337.037 193.476 333.177 191.78L329.41 190.124L328.37 186.596C327.646 184.142 326.124 182.22 324.154 181.032C326.399 178.691 327.263 175.504 326.329 172.467C325.212 168.838 321.847 166.381 317.757 166.208L315.693 166.118L315.38 165.725C315.588 165.426 315.805 165.136 316.005 164.825C317.971 162.503 319.54 159.962 320.671 157.261C326.122 144.257 321.247 128.95 317.686 117.774L317.191 116.215C313.841 105.627 309.794 94.3619 304.82 81.7766C303.205 77.6911 301.324 73.3368 298.641 69.4038C305.325 64.9203 314.342 57.4297 315.702 48.9564C316.426 44.4489 315.042 40.0812 311.804 36.6564C308.544 33.2107 304.452 31.3895 299.971 31.3895C297.672 31.3895 295.384 31.8654 293.111 32.8171C289.381 29.8505 285.653 29.0759 282.78 29.0759C279.795 29.0759 276.878 29.9189 274.107 31.5812C273.387 32.0128 272.733 32.5033 272.111 33.019L268.64 32.4615L266.919 29.6632C265.121 26.7434 262.094 25 258.822 25C254.398 25 250.771 28.0021 249.798 32.4621L249.072 35.7755L245.736 37.5898C242.704 39.2395 240.882 42.0714 240.701 45.1317L171.067 62.5593L154.879 66.6106Z" fill="white"/>
<path d="M273.818 272.378C266.371 301.688 236.769 309.642 235.601 309.956C235.586 309.956 235.557 309.956 235.557 309.956V309.97L232.374 329.686C232.359 329.714 232.374 329.728 232.374 329.728L209.811 331.81L207.781 331.995L186.226 333.948L183.861 235.841L196.434 234.472L277.469 225.762C277.469 225.762 281.413 242.455 273.818 272.378Z" fill="#F6C0BD"/>
<path d="M151.828 76.2764C151.831 76.2928 192.336 265.118 192.336 265.118L188.449 266.09C186.55 266.566 184.452 264.823 183.763 262.199C180.322 249.099 176.882 236 173.442 222.902C166.619 196.924 159.796 170.946 152.974 144.968C149.61 132.161 146.241 119.356 142.875 106.549C141.212 100.221 138.863 93.7262 137.812 87.2778C137.071 82.7273 139.112 80.1207 143.395 78.3988C144.061 78.1305 150.558 76.4865 151.828 76.2764Z" fill="#BF3561"/>
<path d="M246.63 52.4447C251.361 51.2607 256.225 54.0704 257.437 58.6893L302.208 229.156C303.421 233.775 300.543 238.523 295.811 239.707L196.581 264.541C191.849 265.725 186.986 262.916 185.773 258.297L141.002 87.8297C139.789 83.2108 142.667 78.4634 147.399 77.2794L246.63 52.4447Z" fill="#4F021B"/>
<path d="M249.435 63.5358L155.379 87.0703L198.428 251.017L292.484 227.483L249.435 63.5358Z" fill="#FFD1D0"/>
<path d="M208.176 67.2726C208.553 68.7071 207.667 70.1677 206.198 70.5353C204.729 70.903 203.232 70.0386 202.855 68.604C202.479 67.1694 203.364 65.7089 204.833 65.3412C206.303 64.9742 207.799 65.8386 208.176 67.2726Z" fill="#FFD1D0"/>
<path d="M236.659 250.769C236.061 250.769 235.472 250.612 234.941 250.306C234.162 249.856 233.611 249.14 233.387 248.291C233.164 247.442 233.295 246.555 233.756 245.795C234.217 245.035 234.949 244.497 235.82 244.279L263.166 237.435C264.971 236.985 266.813 238.049 267.276 239.81C267.738 241.57 266.647 243.37 264.843 243.822L237.497 250.665C237.221 250.734 236.939 250.769 236.659 250.769ZM264.004 237.522C263.741 237.522 263.475 237.554 263.215 237.619L235.869 244.463C235.049 244.668 234.358 245.176 233.924 245.892C233.49 246.608 233.367 247.443 233.577 248.243C233.787 249.044 234.307 249.717 235.041 250.141C235.774 250.565 236.631 250.686 237.449 250.481L264.795 243.637C266.495 243.211 267.523 241.516 267.087 239.857C266.877 239.056 266.358 238.383 265.624 237.959C265.124 237.67 264.567 237.522 264.004 237.522Z" fill="#FFACB3"/>
<path d="M249.427 63.5293L292.838 228.819L291.654 229.115L248.589 65.1398L153.929 88.831L153.583 87.5161L249.427 63.5293Z" fill="#FFC0C0"/>
<path d="M288.594 195.756C288.166 197.012 288.126 198.378 288.211 199.714C288.411 202.849 289.287 205.953 290.76 208.744C291.703 210.531 293.047 212.307 294.974 212.834C296.95 213.375 299.091 212.392 300.355 210.801C301.62 209.21 302.129 207.119 302.273 205.066C302.502 201.793 301.815 198.315 299.744 195.743C296.996 192.33 290.35 190.601 288.594 195.756Z" fill="#FFACB3"/>
<path d="M285.532 162.43C285.532 162.43 290.89 164.321 294.694 172.637C298.499 180.952 298.563 188.91 290.952 192.324C285.123 194.938 280.121 189.368 278.708 184.314C277.52 180.064 277.998 175.019 280.38 171.24C281.389 169.641 282.971 168.503 283.811 166.786C284.496 165.386 285.052 163.909 285.532 162.43Z" fill="#FFACB3"/>
<path d="M284.485 174.699C283.737 176.504 283.871 178.565 284.466 180.423C285.061 182.28 286.086 183.975 287.115 185.641C287.758 186.68 288.42 187.734 289.361 188.528C290.302 189.321 291.582 189.825 292.797 189.566C294.852 189.128 295.837 186.832 296.166 184.804C296.58 182.248 296.478 179.614 295.866 177.097C295.478 175.503 294.861 173.912 293.716 172.714C290.938 169.806 285.953 171.156 284.485 174.699Z" fill="#FFE7E7"/>
<path d="M291.679 197.187C291.454 198.586 291.846 200.006 292.311 201.348C292.915 203.091 293.649 204.79 294.505 206.429C295.165 207.693 296.168 209.082 297.62 209.075C298.452 209.071 299.221 208.57 299.712 207.913C300.204 207.257 300.455 206.46 300.642 205.668C301.194 203.329 301.231 200.808 300.29 198.591C298.899 195.312 292.618 191.355 291.679 197.187Z" fill="#FFE7E7"/>
<path d="M279.942 208.669C274.513 203.252 268.287 209.588 267.474 210.328C266.816 209.375 262.231 201.979 255.777 206.106C246.231 212.21 264.834 229.593 265.33 230.053C265.33 230.057 265.329 230.062 265.329 230.062C265.329 230.062 265.331 230.061 265.335 230.058C265.338 230.062 265.34 230.064 265.34 230.064C265.34 230.064 265.341 230.058 265.341 230.055C265.925 229.71 287.922 216.633 279.942 208.669Z" fill="#EB616B"/>
<path d="M166.808 70.2878C158.239 70.8795 159.258 80.5425 159.314 81.7424C158.019 81.6012 148.345 80.0812 147.29 88.3521C145.73 100.584 174.072 97.7095 174.825 97.631C174.828 97.6335 174.832 97.638 174.832 97.638C174.832 97.638 174.832 97.6348 174.833 97.6297C174.838 97.6291 174.841 97.6291 174.841 97.6291C174.841 97.6291 174.836 97.6247 174.834 97.6221C174.956 96.895 179.404 69.4177 166.808 70.2878Z" fill="#EB616B"/>
<path d="M306.251 42.3173C300.358 36.0879 293.187 42.9779 292.252 43.7797C291.548 42.6932 286.666 34.2774 279.31 38.69C268.432 45.2162 288.663 65.2415 289.203 65.7725C289.203 65.7763 289.202 65.7826 289.202 65.7826C289.202 65.7826 289.204 65.7807 289.209 65.7788C289.212 65.782 289.215 65.7845 289.215 65.7845C289.215 65.7845 289.215 65.7782 289.216 65.7744C289.88 65.4073 314.912 51.4747 306.251 42.3173Z" fill="#EB616B"/>
<path d="M263.058 38.4117C263.618 39.3223 264.997 40.2152 266.121 40.3956L271.62 41.2784C272.746 41.4593 272.846 42.0529 271.843 42.5984L266.945 45.2638C265.942 45.8093 264.935 47.111 264.706 48.1564L263.587 53.2695C263.357 54.3156 262.712 54.4263 262.151 53.5157L259.413 49.0638C258.854 48.1532 257.474 47.2603 256.35 47.08L250.85 46.1972C249.725 46.0162 249.625 45.4226 250.627 44.8772L255.526 42.2118C256.528 41.6663 257.536 40.3646 257.765 39.3192L258.884 34.2067C259.113 33.1606 259.759 33.0499 260.319 33.9605L263.058 38.4117Z" fill="#FFDCBD"/>
<path d="M311.136 173.084C311.662 173.746 312.825 174.318 313.722 174.356L318.108 174.544C319.005 174.583 319.14 175.038 318.409 175.556L314.833 178.088C314.102 178.606 313.438 179.716 313.359 180.555L312.974 184.656C312.895 185.494 312.401 185.641 311.876 184.979L309.308 181.748C308.783 181.087 307.619 180.515 306.721 180.476L302.336 180.288C301.439 180.25 301.303 179.794 302.034 179.276L305.611 176.744C306.342 176.226 307.005 175.116 307.084 174.277L307.47 170.176C307.549 169.337 308.043 169.192 308.568 169.853L311.136 173.084Z" fill="#FFDCBD"/>
<path d="M322.441 194.183C322.76 195.263 323.919 196.542 325.019 197.025L330.394 199.389C331.493 199.872 331.431 200.506 330.255 200.797L324.504 202.219C323.327 202.511 321.935 203.574 321.409 204.582L318.84 209.511C318.314 210.519 317.623 210.461 317.305 209.381L315.747 204.104C315.429 203.024 314.268 201.745 313.169 201.262L307.794 198.899C306.695 198.416 306.757 197.782 307.934 197.49L313.684 196.068C314.861 195.777 316.253 194.714 316.779 193.706L319.348 188.777C319.874 187.769 320.565 187.827 320.884 188.907L322.441 194.183Z" fill="#FFDCBD"/>
<path d="M217.201 210.232C217.824 211.245 219.357 212.238 220.608 212.438L226.722 213.42C227.973 213.62 228.085 214.281 226.971 214.887L221.524 217.85C220.41 218.456 219.289 219.903 219.035 221.066L217.791 226.75C217.536 227.914 216.818 228.036 216.195 227.024L213.152 222.075C212.529 221.063 210.996 220.07 209.746 219.869L203.632 218.888C202.381 218.687 202.27 218.027 203.383 217.421L208.83 214.458C209.944 213.852 211.064 212.405 211.319 211.241L212.564 205.557C212.819 204.394 213.536 204.271 214.159 205.284L217.201 210.232Z" fill="white"/>
<path d="M274.323 259.994C274.323 259.994 281.6 229.644 310.621 229.54C310.62 229.54 310.482 252.542 274.323 259.994Z" fill="#B8E3C5"/>
<path d="M277.115 268.027C277.115 268.027 302.416 249.012 324.962 266.849C324.962 266.849 309.951 284.581 277.115 268.027Z" fill="#B8E3C5"/>
<path d="M136.935 233.516C137.069 234.026 137.208 234.552 137.329 235.081C139.372 243.309 140.844 252.831 141.445 263.924C141.449 263.938 141.465 263.934 141.453 263.953C141.474 264.227 141.5 264.517 141.505 264.795C141.505 264.795 141.129 264.516 140.462 263.968C140.462 263.968 140.462 263.968 140.442 263.957C137.255 261.396 127.55 253.032 119.23 239.984C118.918 239.503 118.622 239.017 118.325 238.531C114.321 232.022 110.741 224.428 108.456 215.856C108.363 215.506 108.268 215.141 108.192 214.788C106.106 206.523 105.255 197.375 106.434 187.47C106.434 187.47 119.864 193.314 130.155 214.764C130.333 215.124 130.516 215.498 130.683 215.876C133.028 220.887 135.173 226.741 136.935 233.516Z" fill="#B8E3C5"/>
<path d="M142.353 266.956C142.143 267.009 141.92 266.919 141.826 266.732C129.484 242.084 110.467 197.951 110.276 197.508C110.183 197.29 110.299 197.039 110.536 196.946C110.766 196.857 111.04 196.954 111.134 197.172C111.325 197.615 130.333 241.727 142.664 266.354C142.769 266.566 142.668 266.823 142.437 266.927C142.409 266.939 142.382 266.949 142.353 266.956Z" fill="#4F021B"/>
<path d="M121.205 220.907C121.153 221.029 121.038 221.104 120.895 221.14C120.816 221.16 120.749 221.161 120.655 221.122C120.639 221.126 120.604 221.12 120.583 221.109L108.455 215.856C108.363 215.506 108.267 215.141 108.191 214.787L120.126 219.948L121.004 220.335C121.232 220.434 121.317 220.693 121.205 220.907Z" fill="#4F021B"/>
<path d="M130.683 215.876L125.3 228.98C125.276 229.016 125.268 229.05 125.224 229.076C125.164 229.169 125.077 229.222 124.966 229.25C124.887 229.269 124.788 229.279 124.694 229.24C124.453 229.16 124.34 228.924 124.433 228.699L124.72 227.99L130.155 214.765C130.333 215.124 130.516 215.498 130.683 215.876Z" fill="#4F021B"/>
<path d="M136.936 233.516C137.07 234.026 137.208 234.552 137.33 235.081L133.13 246.458C133.077 246.58 132.986 246.681 132.847 246.731L132.8 246.743C132.689 246.771 132.57 246.769 132.456 246.72L132.185 246.586L119.231 239.984C118.918 239.503 118.623 239.017 118.326 238.531L131.571 245.277L132.445 245.712L132.59 245.302L136.936 233.516Z" fill="#4F021B"/>
<path d="M115.319 251.648C115.765 251.967 116.223 252.294 116.672 252.634C123.758 257.831 131.237 264.354 139.053 272.586C139.066 272.595 139.076 272.583 139.078 272.604C139.277 272.804 139.488 273.014 139.677 273.226C139.677 273.226 139.189 273.225 138.288 273.181C138.288 273.181 138.288 273.181 138.265 273.184C134.001 273.018 120.643 272.079 105.307 266.729C104.736 266.534 104.177 266.328 103.617 266.121C96.0846 263.369 88.1765 259.537 80.6685 254.211C80.3625 253.993 80.0442 253.766 79.7493 253.535C72.6049 248.334 65.8734 241.747 60.2783 233.419C60.2783 233.419 74.9788 230.291 97.4569 241.013C97.8388 241.19 98.2336 241.375 98.618 241.572C103.821 244.11 109.42 247.415 115.319 251.648Z" fill="#B8E3C5"/>
<path d="M141.789 274.414C141.655 274.574 141.414 274.632 141.215 274.541C114.968 262.514 70.4583 239.225 70.0123 238.99C69.7932 238.875 69.7206 238.615 69.8509 238.409C69.978 238.208 70.2625 238.127 70.4823 238.242C70.9289 238.477 115.417 261.755 141.642 273.771C141.867 273.875 141.955 274.131 141.837 274.343C141.823 274.368 141.807 274.392 141.789 274.414Z" fill="#4F021B"/>
<path d="M94.294 250.856C94.3323 250.98 94.2895 251.104 94.1981 251.213C94.1475 251.273 94.0937 251.312 93.992 251.336C93.9816 251.348 93.9485 251.363 93.9258 251.366L80.6678 254.21C80.3618 253.992 80.0435 253.765 79.7485 253.534L92.7907 250.729L93.7547 250.528C94.003 250.475 94.2428 250.627 94.294 250.856Z" fill="#4F021B"/>
<path d="M98.6171 241.571L102.932 254.765C102.937 254.808 102.953 254.838 102.934 254.883C102.947 254.989 102.912 255.08 102.841 255.164C102.791 255.224 102.717 255.287 102.615 255.311C102.369 255.387 102.121 255.268 102.047 255.041L101.809 254.33L97.4561 241.012C97.8379 241.188 98.2327 241.374 98.6171 241.571Z" fill="#4F021B"/>
<path d="M115.32 251.647C115.766 251.966 116.224 252.294 116.673 252.633L120.801 263.819C120.839 263.943 120.832 264.073 120.753 264.191L120.723 264.227C120.652 264.311 120.555 264.378 120.43 264.405L120.123 264.456L105.307 266.728C104.736 266.533 104.177 266.327 103.617 266.12L118.763 263.794L119.755 263.632L119.602 263.233L115.32 251.647Z" fill="#4F021B"/>
<path d="M232.372 329.686C232.358 329.715 232.372 329.729 232.372 329.729C232.372 329.729 223.522 335.16 209.883 338.368C209.313 338.496 208.744 338.624 208.16 338.753C190.446 342.544 165.371 342.273 140.998 322.686C138.428 320.619 137.435 317.226 138.37 314.118L147.73 283.241C147.73 283.241 142.02 231.208 142.05 204.479C142.079 195.754 141.538 186.702 141.29 178.319L147.964 145.545C148.957 144.833 150.067 144.291 151.337 143.963C161.53 141.268 176.893 179.103 180.15 199.845C183.378 220.573 182.618 221.058 182.618 221.058C182.618 221.058 188.693 225.976 196.433 234.472C205.326 244.251 216.44 258.778 223.099 276.013C227.845 288.287 230.196 300.433 231.335 310.041C231.349 310.07 231.349 310.098 231.349 310.127C232.679 321.246 232.387 328.973 232.372 329.686Z" fill="#F6C0BD"/>
<path d="M153.067 164.766C153.13 167.772 153.044 170.866 151.854 173.646C150.681 176.422 148.185 178.836 145.131 179.195C143.653 179.362 142.387 179.02 141.287 178.317C140.857 163.247 141.395 150.349 147.968 145.547C148.406 146.096 148.788 146.692 149.133 147.281C152.155 152.535 152.937 158.738 153.067 164.766Z" fill="#FFE7E7"/>
<path d="M224.95 281.154C224.6 281.154 224.307 280.887 224.287 280.541C224.273 280.372 223.793 275.963 213.019 256.935C201.632 236.828 182.4 221.712 182.207 221.561C181.921 221.338 181.874 220.93 182.103 220.65C182.332 220.371 182.75 220.326 183.036 220.549C183.231 220.7 202.668 235.978 214.18 256.309C225.244 275.847 225.604 280.292 225.613 280.472C225.633 280.83 225.352 281.135 224.987 281.154C224.973 281.154 224.961 281.154 224.95 281.154Z" fill="#4F021B"/>
<path d="M235.556 309.971L232.373 329.686C232.359 329.715 232.373 329.729 232.373 329.729C232.373 329.729 223.523 335.16 209.884 338.368C209.606 336.928 209.533 335.431 209.606 333.906C209.635 333.207 209.709 332.509 209.81 331.81C211.344 321.631 220.529 311.425 231.336 310.041C232.724 309.871 234.125 309.842 235.556 309.971Z" fill="#F4A2AB"/>
<path d="M263.592 69.7291C261.902 70.1221 260.234 70.5537 258.609 70.96C243.591 74.7163 228.871 79.6086 214.623 85.5754C203.353 90.2949 191.259 94.8999 182.851 104.009C172.945 114.741 173.284 130.015 175.791 143.349C178.882 159.79 185.516 174.937 194.323 189.185C196.108 192.073 198.414 194.827 201.578 196.182C208.208 199.021 216.94 195.994 223.513 194.372C228.584 193.121 233.641 191.601 238.501 189.703L235.156 213.452L263.176 183.283C273.267 180.752 283.134 177.317 292.52 172.897C300.104 169.325 307.782 165.281 311.149 157.246C315.656 146.491 310.749 132.365 307.413 121.823C303.792 110.38 299.649 99.0986 295.234 87.9238C292.773 81.6956 289.723 74.7391 283.703 71.0226C277.513 67.2017 270.375 68.1522 263.592 69.7291Z" fill="#FFC0C0"/>
<path d="M265.929 66.5833C264.239 66.9763 262.572 67.4079 260.946 67.8148C245.928 71.5712 231.208 76.4634 216.96 82.4302C205.69 87.1498 193.596 91.7547 185.188 100.863C175.282 111.596 175.622 126.87 178.128 140.204C181.219 156.645 187.853 171.792 196.66 186.041C198.445 188.928 200.751 191.682 203.915 193.037C210.545 195.876 219.277 192.849 225.851 191.227C230.92 189.976 235.979 188.456 240.839 186.558L237.494 210.308L265.513 180.139C275.603 177.608 285.471 174.173 294.857 169.753C302.44 166.181 310.118 162.137 313.485 154.103C317.993 143.347 313.086 129.221 309.75 118.679C306.129 107.236 301.986 95.9547 297.571 84.7805C295.11 78.5524 292.06 71.5959 286.04 67.8794C279.85 64.0559 272.712 65.0064 265.929 66.5833Z" fill="#FFE7E7"/>
<path d="M271.694 94.1257C252.047 86.8243 244.112 109.298 242.972 112.019C240.246 110.405 220.376 97.3024 209.307 114.602C192.938 140.186 258.886 162.304 260.64 162.887C260.643 162.896 260.648 162.909 260.648 162.909C260.648 162.909 260.652 162.903 260.659 162.893C260.671 162.897 260.678 162.899 260.678 162.899C260.678 162.899 260.673 162.885 260.67 162.877C261.705 161.383 300.573 104.859 271.694 94.1257Z" fill="#EB616B"/>
</svg>
