<svg width="132" height="29" viewBox="0 0 132 29" fill="none" xmlns="http://www.w3.org/2000/svg">
<path d="M0.793375 8.088C0.644042 7.85333 0.505375 7.53333 0.377375 7.128C0.249375 6.72267 0.185375 6.296 0.185375 5.848C0.185375 5.016 0.366708 4.41867 0.729375 4.056C1.11338 3.69333 1.60404 3.512 2.20138 3.512H16.1534C16.3027 3.74667 16.4414 4.06667 16.5694 4.472C16.6974 4.87733 16.7614 5.304 16.7614 5.752C16.7614 6.584 16.5694 7.18133 16.1854 7.544C15.8227 7.90667 15.3427 8.088 14.7454 8.088H11.1934V22.872C10.9587 22.936 10.5854 23 10.0734 23.064C9.58271 23.128 9.09204 23.16 8.60138 23.16C8.11071 23.16 7.67338 23.1173 7.28938 23.032C6.92671 22.968 6.61738 22.84 6.36138 22.648C6.10538 22.456 5.91338 22.1893 5.78538 21.848C5.65738 21.5067 5.59338 21.0587 5.59338 20.504V8.088H0.793375ZM23.7419 19.544C24.1045 19.544 24.4992 19.512 24.9259 19.448C25.3739 19.3627 25.7045 19.256 25.9179 19.128V16.568L23.6139 16.76C23.0165 16.8027 22.5259 16.9307 22.1419 17.144C21.7579 17.3573 21.5659 17.6773 21.5659 18.104C21.5659 18.5307 21.7259 18.8827 22.0459 19.16C22.3872 19.416 22.9525 19.544 23.7419 19.544ZM23.4859 6.968C24.6379 6.968 25.6832 7.08533 26.6219 7.32C27.5819 7.55467 28.3925 7.91733 29.0539 8.408C29.7365 8.87733 30.2592 9.48533 30.6219 10.232C30.9845 10.9573 31.1659 11.8213 31.1659 12.824V19.992C31.1659 20.5467 31.0059 21.0053 30.6859 21.368C30.3872 21.7093 30.0245 22.008 29.5979 22.264C28.2112 23.096 26.2592 23.512 23.7419 23.512C22.6112 23.512 21.5872 23.4053 20.6699 23.192C19.7739 22.9787 18.9952 22.6587 18.3339 22.232C17.6939 21.8053 17.1925 21.2613 16.8299 20.6C16.4885 19.9387 16.3179 19.1707 16.3179 18.296C16.3179 16.824 16.7552 15.6933 17.6299 14.904C18.5045 14.1147 19.8592 13.624 21.6939 13.432L25.8859 12.984V12.76C25.8859 12.1413 25.6085 11.704 25.0539 11.448C24.5205 11.1707 23.7419 11.032 22.7179 11.032C21.9072 11.032 21.1179 11.1173 20.3499 11.288C19.5819 11.4587 18.8885 11.672 18.2699 11.928C17.9925 11.736 17.7579 11.448 17.5659 11.064C17.3739 10.6587 17.2779 10.2427 17.2779 9.816C17.2779 9.26133 17.4059 8.824 17.6619 8.504C17.9392 8.16267 18.3552 7.87467 18.9099 7.64C19.5285 7.40533 20.2539 7.23467 21.0859 7.128C21.9392 7.02133 22.7392 6.968 23.4859 6.968ZM33.5561 2.168C33.7695 2.104 34.1108 2.04 34.5801 1.976C35.0495 1.89067 35.5295 1.848 36.0201 1.848C36.4895 1.848 36.9055 1.88 37.2681 1.944C37.6521 2.008 37.9721 2.136 38.2281 2.328C38.4841 2.52 38.6761 2.78667 38.8041 3.128C38.9321 3.448 38.9961 3.87467 38.9961 4.408V7.544C39.5295 7.33067 40.0308 7.18133 40.5001 7.096C40.9908 7.01067 41.5241 6.968 42.1001 6.968C43.1241 6.968 44.0948 7.14933 45.0121 7.512C45.9295 7.87467 46.7401 8.408 47.4441 9.112C48.1481 9.79467 48.7028 10.648 49.1081 11.672C49.5135 12.696 49.7161 13.88 49.7161 15.224C49.7161 16.6107 49.5028 17.8267 49.0761 18.872C48.6708 19.896 48.0948 20.7493 47.3481 21.432C46.6015 22.1147 45.6841 22.6373 44.5961 23C43.5295 23.3413 42.3455 23.512 41.0441 23.512C39.6361 23.512 38.4415 23.3413 37.4601 23C36.4788 22.68 35.6468 22.2747 34.9641 21.784C34.0255 21.1227 33.5561 20.2693 33.5561 19.224V2.168ZM41.0441 19.224C42.0255 19.224 42.7828 18.8933 43.3161 18.232C43.8708 17.5493 44.1481 16.5467 44.1481 15.224C44.1481 13.88 43.8708 12.8773 43.3161 12.216C42.7615 11.5547 42.0148 11.224 41.0761 11.224C40.6495 11.224 40.2761 11.2667 39.9561 11.352C39.6575 11.4373 39.3268 11.5653 38.9641 11.736V18.712C39.1988 18.8613 39.4761 18.9893 39.7961 19.096C40.1375 19.1813 40.5535 19.224 41.0441 19.224ZM56.9031 22.968C56.6685 23.0107 56.3165 23.064 55.8471 23.128C55.3991 23.2133 54.9405 23.256 54.4711 23.256C54.0018 23.256 53.5751 23.224 53.1911 23.16C52.8285 23.096 52.5191 22.968 52.2631 22.776C52.0071 22.584 51.8045 22.328 51.6551 22.008C51.5271 21.6667 51.4631 21.2293 51.4631 20.696V2.136C51.6978 2.09333 52.0391 2.04 52.4871 1.976C52.9565 1.89067 53.4258 1.848 53.8951 1.848C54.3645 1.848 54.7805 1.88 55.1431 1.944C55.5271 2.008 55.8471 2.136 56.1031 2.328C56.3591 2.52 56.5511 2.78667 56.6791 3.128C56.8285 3.448 56.9031 3.87467 56.9031 4.408V22.968ZM67.5599 23.512C66.3012 23.512 65.1279 23.3413 64.0399 23C62.9732 22.6373 62.0345 22.104 61.2239 21.4C60.4345 20.696 59.8052 19.8107 59.3359 18.744C58.8879 17.6773 58.6639 16.4293 58.6639 15C58.6639 13.592 58.8879 12.3867 59.3359 11.384C59.8052 10.36 60.4132 9.528 61.1599 8.888C61.9065 8.22667 62.7599 7.74667 63.7199 7.448C64.6799 7.128 65.6612 6.968 66.6639 6.968C67.7945 6.968 68.8185 7.13867 69.7359 7.48C70.6745 7.82133 71.4745 8.29067 72.1359 8.888C72.8185 9.48533 73.3412 10.2 73.7039 11.032C74.0879 11.864 74.2799 12.7707 74.2799 13.752C74.2799 14.4773 74.0772 15.032 73.6719 15.416C73.2665 15.8 72.7012 16.0453 71.9759 16.152L64.0719 17.336C64.3065 18.04 64.7865 18.5733 65.5119 18.936C66.2372 19.2773 67.0692 19.448 68.0079 19.448C68.8825 19.448 69.7039 19.3413 70.4719 19.128C71.2612 18.8933 71.9012 18.6267 72.3919 18.328C72.7332 18.5413 73.0212 18.84 73.2559 19.224C73.4905 19.608 73.6079 20.0133 73.6079 20.44C73.6079 21.4 73.1599 22.1147 72.2639 22.584C71.5812 22.9467 70.8132 23.192 69.9599 23.32C69.1065 23.448 68.3065 23.512 67.5599 23.512ZM66.6639 10.936C66.1519 10.936 65.7039 11.0213 65.3199 11.192C64.9572 11.3627 64.6585 11.5867 64.4239 11.864C64.1892 12.12 64.0079 12.4187 63.8799 12.76C63.7732 13.08 63.7092 13.4107 63.6879 13.752L69.1599 12.856C69.0959 12.4293 68.8612 12.0027 68.4559 11.576C68.0505 11.1493 67.4532 10.936 66.6639 10.936ZM83.0344 6.968C84.3144 6.968 85.4984 7.13867 86.5864 7.48C87.6957 7.8 88.645 8.30133 89.4344 8.984C90.2237 9.66667 90.8424 10.5307 91.2904 11.576C91.7384 12.6 91.9624 13.8267 91.9624 15.256C91.9624 16.6213 91.7704 17.816 91.3864 18.84C91.0024 19.864 90.4584 20.728 89.7544 21.432C89.0504 22.1147 88.197 22.6267 87.1944 22.968C86.213 23.3093 85.1144 23.48 83.8984 23.48C82.981 23.48 82.1277 23.3413 81.3384 23.064V28.376C81.125 28.44 80.7837 28.504 80.3144 28.568C79.845 28.6533 79.365 28.696 78.8744 28.696C78.405 28.696 77.9784 28.664 77.5944 28.6C77.2317 28.536 76.9224 28.408 76.6664 28.216C76.4104 28.024 76.2184 27.7573 76.0904 27.416C75.9624 27.096 75.8984 26.6693 75.8984 26.136V10.776C75.8984 10.2 76.0157 9.73067 76.2504 9.368C76.5064 9.00533 76.8477 8.67467 77.2744 8.376C77.9357 7.94933 78.757 7.608 79.7384 7.352C80.7197 7.096 81.8184 6.968 83.0344 6.968ZM83.0984 19.192C85.2957 19.192 86.3944 17.88 86.3944 15.256C86.3944 13.8907 86.117 12.8773 85.5624 12.216C85.029 11.5547 84.2504 11.224 83.2264 11.224C82.821 11.224 82.4584 11.2773 82.1384 11.384C81.8184 11.4693 81.541 11.576 81.3064 11.704V18.744C81.5624 18.872 81.8397 18.9787 82.1384 19.064C82.437 19.1493 82.757 19.192 83.0984 19.192ZM93.4891 3.128C93.4891 2.31733 93.7558 1.63467 94.2891 1.08C94.8438 0.525332 95.5691 0.247999 96.4651 0.247999C97.3611 0.247999 98.0758 0.525332 98.6091 1.08C99.1638 1.63467 99.4411 2.31733 99.4411 3.128C99.4411 3.93867 99.1638 4.62133 98.6091 5.176C98.0758 5.73067 97.3611 6.008 96.4651 6.008C95.5691 6.008 94.8438 5.73067 94.2891 5.176C93.7558 4.62133 93.4891 3.93867 93.4891 3.128ZM99.1851 22.968C98.9505 23.0107 98.5985 23.064 98.1291 23.128C97.6811 23.2133 97.2225 23.256 96.7531 23.256C96.2838 23.256 95.8571 23.224 95.4731 23.16C95.1105 23.096 94.8011 22.968 94.5451 22.776C94.2891 22.584 94.0865 22.328 93.9371 22.008C93.8091 21.6667 93.7451 21.2293 93.7451 20.696V7.672C93.9798 7.62933 94.3211 7.576 94.7691 7.512C95.2385 7.42667 95.7078 7.384 96.1771 7.384C96.6465 7.384 97.0625 7.416 97.4251 7.48C97.8091 7.544 98.1291 7.672 98.3851 7.864C98.6411 8.056 98.8331 8.32267 98.9611 8.664C99.1105 8.984 99.1851 9.41067 99.1851 9.944V22.968ZM110.416 11.256C109.883 11.256 109.371 11.3413 108.88 11.512C108.411 11.6827 107.995 11.9387 107.632 12.28C107.291 12.6 107.014 13.0053 106.8 13.496C106.587 13.9867 106.48 14.5627 106.48 15.224C106.48 16.5467 106.854 17.5387 107.6 18.2C108.368 18.8613 109.296 19.192 110.384 19.192C111.024 19.192 111.579 19.1173 112.048 18.968C112.518 18.8187 112.934 18.6587 113.296 18.488C113.723 18.7867 114.043 19.1173 114.256 19.48C114.47 19.8213 114.576 20.2373 114.576 20.728C114.576 21.6027 114.16 22.2853 113.328 22.776C112.496 23.2453 111.344 23.48 109.872 23.48C108.528 23.48 107.312 23.288 106.224 22.904C105.136 22.4987 104.198 21.944 103.408 21.24C102.64 20.5147 102.043 19.6507 101.616 18.648C101.19 17.6453 100.976 16.536 100.976 15.32C100.976 13.912 101.2 12.6853 101.648 11.64C102.118 10.5733 102.747 9.69867 103.536 9.016C104.326 8.33333 105.232 7.82133 106.256 7.48C107.302 7.13867 108.4 6.968 109.552 6.968C111.088 6.968 112.272 7.24533 113.104 7.8C113.936 8.35467 114.352 9.06933 114.352 9.944C114.352 10.3493 114.256 10.7333 114.064 11.096C113.872 11.4373 113.648 11.736 113.392 11.992C113.03 11.8213 112.592 11.6613 112.08 11.512C111.568 11.3413 111.014 11.256 110.416 11.256ZM131.505 20.184C131.398 21.1867 131.099 21.9547 130.609 22.488C130.139 23.0213 129.446 23.288 128.529 23.288C127.846 23.288 127.238 23.128 126.705 22.808C126.171 22.4667 125.595 21.9013 124.977 21.112L121.809 17.144V22.968C121.574 23.0107 121.222 23.064 120.753 23.128C120.305 23.2133 119.846 23.256 119.377 23.256C118.907 23.256 118.481 23.224 118.097 23.16C117.734 23.096 117.425 22.968 117.169 22.776C116.913 22.584 116.71 22.328 116.561 22.008C116.433 21.6667 116.369 21.2293 116.369 20.696V2.168C116.603 2.104 116.945 2.04 117.393 1.976C117.862 1.89067 118.331 1.848 118.801 1.848C119.27 1.848 119.686 1.88 120.049 1.944C120.433 2.008 120.753 2.136 121.009 2.328C121.265 2.52 121.457 2.78667 121.585 3.128C121.734 3.448 121.809 3.87467 121.809 4.408V12.856L127.313 7.224C128.422 7.224 129.307 7.46933 129.969 7.96C130.651 8.45067 130.993 9.06933 130.993 9.816C130.993 10.136 130.939 10.4347 130.833 10.712C130.726 10.968 130.555 11.2347 130.321 11.512C130.107 11.7893 129.819 12.088 129.457 12.408C129.115 12.7067 128.71 13.0587 128.241 13.464L126.385 15.064L131.505 20.184Z" fill="#EB616B"/>
</svg>
